<?xml version="1.0" encoding="utf-8" ?>
<svg baseProfile="full" height="209.97333333333333mm" version="1.1" viewBox="0 0 297.0106666666667 209.97333333333333" width="297.0106666666667mm" xmlns="http://www.w3.org/2000/svg" xmlns:ev="http://www.w3.org/2001/xml-events" xmlns:xlink="http://www.w3.org/1999/xlink"><defs /><path d="M 0.0000,0.0000 L 0.0000,209.8887 L 296.9260,209.8887 L 296.9260,0.0000 Z" fill="black" stroke="none" /><path d="M 80.6873,9.9060 L 216.2387,9.9060 L 216.3233,9.9907 L 216.3233,199.8980 L 216.2387,199.9827 L 80.6873,199.9827 L 80.6027,199.8980 L 80.6027,9.9907 Z" fill="white" stroke="none" /><path d="M 142.9173,59.9440 L 141.8167,59.9440 L 141.7320,59.8593 L 141.7320,59.6900 L 141.5627,59.6900 L 141.5627,59.8593 L 141.4780,59.9440 L 140.3773,59.9440 L 140.2927,60.1133 L 139.8693,60.1133 L 139.8693,60.2827 L 139.7847,60.3673 L 139.6153,60.3673 L 139.6153,60.5367 L 139.5307,60.6213 L 139.3613,60.6213 L 139.3613,60.7907 L 139.1920,60.8753 L 139.1920,61.0447 L 139.1073,61.1293 L 138.9380,61.1293 L 138.9380,61.4680 L 138.8533,61.5527 L 138.6840,61.5527 L 138.6840,61.9760 L 138.5993,62.0607 L 138.4300,62.0607 L 138.4300,62.3993 L 138.3453,62.4840 L 138.1760,62.4840 L 138.1760,62.9073 L 138.0067,62.9920 L 138.0067,63.1613 L 137.9220,63.2460 L 137.7527,63.2460 L 137.7527,63.4153 L 137.6680,63.5000 L 137.4987,63.5000 L 137.4140,63.6693 L 137.2447,63.6693 L 137.2447,63.8387 L 137.1600,63.9233 L 136.9907,63.9233 L 136.9907,64.0927 L 136.8213,64.1773 L 136.8213,64.3467 L 136.7367,64.4313 L 136.5673,64.4313 L 136.5673,64.6007 L 136.4827,64.6853 L 136.3133,64.6853 L 136.3133,65.0240 L 136.2287,65.1087 L 136.0593,65.1087 L 136.0593,65.5320 L 135.9747,65.6167 L 135.8053,65.6167 L 135.8053,67.6487 L 135.9747,67.6487 L 136.0593,67.7333 L 136.0593,68.1567 L 136.2287,68.1567 L 136.3133,68.2413 L 136.3133,68.5800 L 136.4827,68.5800 L 136.5673,68.6647 L 136.5673,70.2733 L 136.4827,70.3580 L 136.3133,70.3580 L 136.3133,70.7813 L 136.2287,70.8660 L 136.0593,70.8660 L 136.0593,71.2047 L 135.9747,71.2893 L 135.8053,71.2893 L 135.8053,71.7127 L 135.6360,71.7973 L 135.6360,72.1360 L 135.5513,72.2207 L 135.3820,72.2207 L 135.3820,72.6440 L 135.2973,72.7287 L 135.1280,72.7287 L 135.1280,73.3213 L 135.0433,73.4060 L 134.8740,73.4060 L 134.8740,74.3373 L 134.7893,74.4220 L 134.6200,74.4220 L 134.6200,75.0147 L 134.4507,75.0993 L 134.4507,75.5227 L 134.3660,75.6073 L 134.1967,75.6073 L 134.1967,75.9460 L 134.1120,76.0307 L 133.9427,76.0307 L 133.9427,76.2000 L 133.8580,76.2847 L 133.6887,76.2847 L 133.6887,76.7080 L 133.6040,76.7927 L 133.4347,76.7927 L 133.4347,76.9620 L 133.2653,77.0467 L 133.2653,77.3853 L 133.1807,77.4700 L 133.0113,77.4700 L 133.0113,77.8933 L 132.9267,77.9780 L 132.7573,77.9780 L 132.7573,78.3167 L 132.6727,78.4013 L 132.5033,78.4013 L 132.5033,78.8247 L 132.4187,78.9093 L 132.2493,78.9093 L 132.2493,79.3327 L 132.0800,79.4173 L 132.0800,79.7560 L 131.9953,79.8407 L 131.8260,79.8407 L 131.8260,80.2640 L 131.7413,80.3487 L 131.5720,80.3487 L 131.5720,80.9413 L 131.4873,81.0260 L 131.3180,81.0260 L 131.3180,81.4493 L 131.2333,81.5340 L 131.0640,81.5340 L 131.0640,81.8727 L 130.9793,81.9573 L 130.8100,81.9573 L 130.8100,82.1267 L 130.6407,82.2113 L 130.6407,82.3807 L 130.5560,82.4653 L 130.3867,82.4653 L 130.3867,82.6347 L 130.3020,82.7193 L 130.1327,82.7193 L 130.1327,83.0580 L 130.0480,83.1427 L 129.8787,83.1427 L 129.8787,83.5660 L 129.7940,83.6507 L 129.6247,83.6507 L 129.6247,84.0740 L 129.4553,84.1587 L 129.4553,84.4973 L 129.3707,84.5820 L 129.2013,84.5820 L 129.2013,85.0053 L 129.1167,85.0900 L 128.9473,85.0900 L 128.9473,85.4287 L 128.8627,85.5133 L 128.6933,85.5133 L 128.6933,85.9367 L 128.6087,86.0213 L 128.4393,86.0213 L 128.4393,86.6987 L 128.2700,86.7833 L 128.2700,87.8840 L 128.1853,87.9687 L 128.0160,87.9687 L 128.0160,88.3073 L 127.9313,88.3920 L 127.7620,88.3920 L 127.7620,89.7467 L 127.6773,89.8313 L 127.5080,89.8313 L 127.5080,92.1173 L 127.4233,92.2020 L 127.2540,92.2020 L 127.2540,96.1813 L 127.0847,96.2660 L 127.0847,98.2980 L 127.0000,98.3827 L 126.8307,98.3827 L 126.8307,100.4147 L 127.0000,100.4147 L 127.0847,100.4993 L 127.0847,103.9707 L 127.2540,104.0553 L 127.2540,104.4787 L 127.4233,104.4787 L 127.5080,104.5633 L 127.5080,105.1560 L 127.6773,105.1560 L 127.7620,105.2407 L 127.7620,105.6640 L 127.9313,105.6640 L 128.0160,105.7487 L 128.0160,106.1720 L 128.1853,106.1720 L 128.2700,106.3413 L 128.4393,106.4260 L 128.4393,106.5953 L 128.6087,106.5953 L 128.6933,106.6800 L 128.6933,106.8493 L 129.1167,106.8493 L 129.2013,106.9340 L 129.2013,107.1033 L 130.3020,107.1033 L 130.3867,107.1880 L 130.3867,107.3573 L 130.5560,107.3573 L 130.5560,107.1880 L 130.6407,107.1033 L 131.7413,107.1033 L 131.7413,106.9340 L 131.8260,106.8493 L 132.1647,106.8493 L 132.1647,106.6800 L 132.2493,106.5953 L 132.4187,106.5953 L 132.4187,106.4260 L 132.5033,106.3413 L 132.6727,106.3413 L 132.7573,106.1720 L 132.9267,106.1720 L 132.9267,105.7487 L 133.0113,105.6640 L 133.1807,105.6640 L 133.1807,105.2407 L 133.3500,105.1560 L 133.3500,104.8173 L 133.4347,104.7327 L 133.6040,104.7327 L 133.6040,104.3093 L 133.6887,104.2247 L 133.8580,104.2247 L 133.8580,104.0553 L 133.9427,103.9707 L 134.1120,103.9707 L 134.1120,103.8013 L 134.1967,103.7167 L 134.3660,103.7167 L 134.4507,103.5473 L 134.7893,103.5473 L 134.7893,103.3780 L 134.8740,103.2933 L 135.9747,103.2933 L 135.9747,103.1240 L 136.0593,103.0393 L 137.9220,103.0393 L 138.0067,103.1240 L 138.0067,103.2933 L 139.1073,103.2933 L 139.1920,103.3780 L 139.1920,103.5473 L 140.2927,103.5473 L 140.3773,103.7167 L 141.4780,103.7167 L 141.5627,103.8013 L 141.5627,103.9707 L 142.6633,103.9707 L 142.7480,104.0553 L 142.7480,104.2247 L 143.5947,104.2247 L 143.6793,104.3093 L 143.6793,104.4787 L 144.5260,104.4787 L 144.6107,104.5633 L 144.6107,104.7327 L 145.7113,104.7327 L 145.7960,104.9020 L 146.6427,104.9020 L 146.7273,104.9867 L 146.7273,105.1560 L 147.4047,105.1560 L 147.4893,105.2407 L 147.4893,105.4100 L 148.5900,105.4100 L 148.6747,105.4947 L 148.6747,105.6640 L 149.5213,105.6640 L 149.6060,105.7487 L 149.6060,105.9180 L 150.0293,105.9180 L 150.1140,106.0027 L 150.1140,106.1720 L 150.4527,106.1720 L 150.5373,106.3413 L 151.6380,106.3413 L 151.7227,106.4260 L 151.7227,106.5953 L 151.8920,106.5953 L 151.8920,106.4260 L 151.9767,106.3413 L 153.0773,106.3413 L 153.1620,106.1720 L 153.5853,106.1720 L 153.5853,106.0027 L 153.6700,105.9180 L 153.8393,105.9180 L 153.8393,105.7487 L 154.0087,105.6640 L 154.0087,105.4947 L 154.0933,105.4100 L 154.2627,105.4100 L 154.2627,104.9867 L 154.3473,104.9020 L 154.5167,104.9020 L 154.5167,104.5633 L 154.6013,104.4787 L 154.7707,104.4787 L 154.7707,103.8013 L 154.8553,103.7167 L 155.0247,103.7167 L 155.0247,98.8907 L 154.8553,98.8907 L 154.7707,98.8060 L 154.7707,97.8747 L 154.6013,97.8747 L 154.5167,97.7900 L 154.5167,97.1973 L 154.3473,97.1973 L 154.2627,97.1127 L 154.2627,96.6893 L 154.0933,96.6893 L 154.0087,96.6047 L 154.0087,96.2660 L 153.8393,96.1813 L 153.8393,95.7580 L 153.6700,95.7580 L 153.5853,95.6733 L 153.5853,95.5040 L 153.4160,95.5040 L 153.3313,95.4193 L 153.3313,95.2500 L 153.1620,95.2500 L 153.0773,95.1653 L 153.0773,94.8267 L 152.9080,94.8267 L 152.8233,94.7420 L 152.8233,94.5727 L 152.6540,94.4880 L 152.6540,94.0647 L 152.4847,94.0647 L 152.4000,93.8953 L 152.2307,93.8953 L 152.1460,93.8107 L 152.1460,93.3873 L 151.9767,93.3873 L 151.8920,93.3027 L 151.8920,92.8793 L 151.7227,92.8793 L 151.6380,92.7947 L 151.6380,92.4560 L 151.4687,92.3713 L 151.4687,92.2020 L 151.2993,92.2020 L 151.2147,92.1173 L 151.2147,91.9480 L 151.0453,91.9480 L 150.9607,91.8633 L 150.9607,91.6940 L 150.7913,91.6940 L 150.7067,91.6093 L 150.7067,91.2707 L 150.5373,91.2707 L 150.4527,91.1860 L 150.4527,90.7627 L 150.2833,90.6780 L 150.2833,86.9527 L 150.4527,86.8680 L 150.4527,86.5293 L 150.5373,86.4447 L 150.7067,86.4447 L 150.7067,86.0213 L 150.7913,85.9367 L 150.9607,85.9367 L 150.9607,85.5133 L 151.0453,85.4287 L 151.2147,85.4287 L 151.2147,85.0900 L 151.2993,85.0053 L 151.4687,85.0053 L 151.4687,84.8360 L 151.6380,84.7513 L 151.6380,84.5820 L 151.7227,84.4973 L 151.8920,84.4973 L 151.8920,84.3280 L 151.9767,84.2433 L 152.1460,84.2433 L 152.2307,84.0740 L 152.4000,84.0740 L 152.4000,83.9047 L 152.4847,83.8200 L 152.6540,83.8200 L 152.6540,83.6507 L 152.7387,83.5660 L 153.0773,83.5660 L 153.0773,83.3967 L 153.1620,83.3120 L 153.5853,83.3120 L 153.5853,83.1427 L 153.6700,83.0580 L 153.8393,83.0580 L 153.8393,82.9733 L 154.0087,82.8887 L 154.0087,82.7193 L 154.0933,82.6347 L 154.5167,82.6347 L 154.5167,82.4653 L 154.6013,82.3807 L 155.0247,82.3807 L 155.0247,82.2113 L 155.1940,82.1267 L 155.1940,81.9573 L 155.2787,81.8727 L 155.4480,81.8727 L 155.5327,81.7033 L 155.7020,81.7033 L 155.7020,81.5340 L 155.7867,81.4493 L 155.9560,81.4493 L 155.9560,81.2800 L 156.0407,81.1953 L 156.2100,81.1953 L 156.2100,81.0260 L 156.3793,80.9413 L 156.3793,80.7720 L 156.4640,80.6873 L 156.6333,80.6873 L 156.7180,80.5180 L 156.8873,80.5180 L 156.8873,80.3487 L 156.9720,80.2640 L 157.1413,80.2640 L 157.1413,79.8407 L 157.2260,79.7560 L 157.3953,79.7560 L 157.3953,79.4173 L 157.4800,79.3327 L 157.6493,79.3327 L 157.6493,77.7240 L 157.4800,77.7240 L 157.3953,77.6393 L 157.3953,77.2160 L 157.2260,77.2160 L 157.1413,77.1313 L 157.1413,76.7927 L 156.9720,76.7927 L 156.8873,76.7080 L 156.8873,76.5387 L 156.7180,76.5387 L 156.6333,76.4540 L 156.6333,76.2847 L 156.4640,76.2847 L 156.3793,76.2000 L 156.3793,76.0307 L 156.2100,75.9460 L 156.2100,75.7767 L 156.0407,75.7767 L 155.9560,75.6073 L 155.7867,75.6073 L 155.7020,75.5227 L 155.7020,75.3533 L 155.5327,75.3533 L 155.4480,75.2687 L 155.4480,75.0993 L 155.2787,75.0993 L 155.1940,75.0147 L 155.1940,74.8453 L 155.0247,74.7607 L 155.0247,74.5913 L 154.8553,74.5913 L 154.7707,74.4220 L 154.6013,74.4220 L 154.5167,74.3373 L 154.5167,74.1680 L 154.3473,74.1680 L 154.2627,74.0833 L 154.2627,73.6600 L 154.0933,73.6600 L 154.0087,73.5753 L 154.0087,73.2367 L 153.8393,73.1520 L 153.8393,72.9827 L 153.6700,72.9827 L 153.5853,72.8980 L 153.5853,72.7287 L 153.4160,72.7287 L 153.3313,72.6440 L 153.3313,72.2207 L 153.1620,72.2207 L 153.0773,72.0513 L 152.9080,72.0513 L 152.8233,71.9667 L 152.8233,71.7973 L 152.6540,71.7127 L 152.6540,71.5433 L 152.4847,71.5433 L 152.4000,71.4587 L 152.4000,71.2893 L 152.2307,71.2893 L 152.1460,71.2047 L 152.1460,71.0353 L 151.9767,71.0353 L 151.8920,70.8660 L 151.7227,70.8660 L 151.6380,70.7813 L 151.6380,70.6120 L 151.4687,70.5273 L 151.4687,70.3580 L 151.2993,70.3580 L 151.2147,70.2733 L 151.2147,69.8500 L 151.0453,69.8500 L 150.9607,69.6807 L 150.7913,69.6807 L 150.7067,69.5960 L 150.7067,69.4267 L 150.5373,69.4267 L 150.4527,69.3420 L 150.4527,68.9187 L 150.2833,68.8340 L 150.2833,68.6647 L 150.1140,68.6647 L 150.0293,68.4953 L 149.8600,68.4953 L 149.7753,68.4107 L 149.7753,67.9873 L 149.6060,67.9873 L 149.5213,67.9027 L 149.5213,67.7333 L 149.3520,67.7333 L 149.2673,67.6487 L 149.2673,67.3100 L 149.0980,67.2253 L 149.0980,67.0560 L 148.9287,67.0560 L 148.8440,66.9713 L 148.8440,66.8020 L 148.6747,66.8020 L 148.5900,66.7173 L 148.5900,66.2940 L 148.4207,66.2940 L 148.3360,66.2093 L 148.3360,66.0400 L 148.1667,66.0400 L 148.0820,65.8707 L 147.9127,65.8707 L 147.8280,65.7860 L 147.8280,65.3627 L 147.6587,65.2780 L 147.6587,65.1087 L 147.4893,65.1087 L 147.4047,65.0240 L 147.4047,64.8547 L 147.2353,64.8547 L 147.1507,64.6853 L 146.9813,64.6853 L 146.8967,64.6007 L 146.8967,64.4313 L 146.7273,64.4313 L 146.6427,64.3467 L 146.6427,63.9233 L 146.4733,63.8387 L 146.4733,63.5000 L 146.3040,63.5000 L 146.2193,63.4153 L 146.2193,62.9920 L 146.0500,62.9920 L 145.9653,62.9073 L 145.9653,62.7380 L 145.7960,62.7380 L 145.7113,62.6533 L 145.7113,62.4840 L 145.5420,62.4840 L 145.4573,62.3147 L 145.2880,62.2300 L 145.2880,62.0607 L 145.1187,62.0607 L 145.0340,61.9760 L 145.0340,61.8067 L 144.8647,61.8067 L 144.7800,61.7220 L 144.7800,61.5527 L 144.6107,61.5527 L 144.5260,61.4680 L 144.5260,61.2987 L 144.3567,61.2987 L 144.2720,61.1293 L 144.1027,61.0447 L 144.1027,60.8753 L 143.9333,60.8753 L 143.8487,60.7907 L 143.8487,60.6213 L 143.6793,60.6213 L 143.5947,60.5367 L 143.5947,60.3673 L 143.4253,60.3673 L 143.3407,60.2827 L 143.3407,60.1133 L 143.0020,60.1133 Z" fill="white" stroke="none" /></svg>