<?xml version="1.0" encoding="utf-8" ?>
<svg baseProfile="full" height="209.97333333333333mm" version="1.1" viewBox="0 0 297.0106666666667 209.97333333333333" width="297.0106666666667mm" xmlns="http://www.w3.org/2000/svg" xmlns:ev="http://www.w3.org/2001/xml-events" xmlns:xlink="http://www.w3.org/1999/xlink"><defs /><path d="M 0.0000,0.0000 L 0.0000,209.8887 L 296.9260,209.8887 L 296.9260,0.0000 Z" fill="black" stroke="none" /><path d="M 80.6873,188.5527 L 80.8567,188.5527 L 80.9413,188.6373 L 80.9413,188.8067 L 82.0420,188.8067 L 82.1267,188.9760 L 82.5500,188.9760 L 82.6347,189.0607 L 82.6347,189.2300 L 82.8040,189.2300 L 82.8887,189.3147 L 82.8887,189.4840 L 83.2273,189.4840 L 83.3120,189.5687 L 83.3120,189.7380 L 83.4813,189.7380 L 83.5660,189.8227 L 83.5660,189.9920 L 83.7353,189.9920 L 83.8200,190.1613 L 83.9893,190.1613 L 84.0740,190.2460 L 84.0740,190.4153 L 84.2433,190.4153 L 84.3280,190.5000 L 84.3280,190.6693 L 84.4973,190.7540 L 84.4973,191.1773 L 84.6667,191.1773 L 84.7513,191.2620 L 84.7513,191.6007 L 84.9207,191.6007 L 85.0053,191.6853 L 85.0053,194.2253 L 84.9207,194.3100 L 84.7513,194.3100 L 84.7513,194.7333 L 84.6667,194.8180 L 84.4973,194.8180 L 84.4973,195.1567 L 84.3280,195.2413 L 84.3280,195.4107 L 84.2433,195.4953 L 84.0740,195.4953 L 84.0740,195.6647 L 83.9893,195.7493 L 83.8200,195.7493 L 83.8200,195.9187 L 83.7353,196.0033 L 83.5660,196.0033 L 83.5660,196.1727 L 83.4813,196.2573 L 83.3120,196.2573 L 83.3120,196.5960 L 83.1427,196.6807 L 83.1427,196.8500 L 83.0580,196.9347 L 82.8887,196.9347 L 82.8887,197.1040 L 82.8040,197.1887 L 82.6347,197.1887 L 82.6347,197.3580 L 82.5500,197.4427 L 82.1267,197.4427 L 82.1267,197.5273 L 81.9573,197.6120 L 81.9573,197.7813 L 81.8727,197.8660 L 81.7033,197.8660 L 81.7033,198.0353 L 81.6187,198.1200 L 81.4493,198.1200 L 81.4493,198.5433 L 81.3647,198.6280 L 81.1953,198.6280 L 81.1953,198.9667 L 81.1107,199.0513 L 80.9413,199.0513 L 80.9413,199.8980 L 80.8567,199.9827 L 80.6873,199.9827 L 80.6027,199.8980 L 80.6027,188.6373 Z" fill="white" stroke="none" /><path d="M 216.3233,174.4133 L 216.3233,199.8980 L 216.2387,199.9827 L 197.1040,199.9827 L 197.0193,199.8980 L 197.0193,197.6120 L 196.8500,197.6120 L 196.7653,197.5273 L 196.7653,197.1887 L 196.5960,197.1040 L 196.5960,196.6807 L 196.4267,196.6807 L 196.3420,196.5960 L 196.3420,196.4267 L 196.1727,196.4267 L 196.0880,196.2573 L 195.9187,196.2573 L 195.8340,196.1727 L 195.8340,196.0033 L 195.4953,196.0033 L 195.4107,195.9187 L 195.4107,195.7493 L 195.2413,195.7493 L 195.1567,195.6647 L 195.1567,195.4953 L 194.9873,195.4953 L 194.9027,195.4107 L 194.9027,195.2413 L 194.7333,195.2413 L 194.6487,195.0720 L 194.4793,195.0720 L 194.3947,194.9873 L 194.3947,194.8180 L 194.0560,194.8180 L 193.9713,194.7333 L 193.9713,194.5640 L 192.8707,194.5640 L 192.7860,194.4793 L 192.7860,194.3100 L 192.1087,194.3100 L 192.1087,194.4793 L 192.0240,194.5640 L 190.9233,194.5640 L 190.9233,194.7333 L 190.8387,194.8180 L 190.5000,194.8180 L 190.5000,194.9873 L 190.4153,195.0720 L 189.3147,195.0720 L 189.2300,195.2413 L 188.5527,195.2413 L 188.4680,195.0720 L 187.3673,195.0720 L 187.2827,194.9873 L 187.2827,194.8180 L 186.9440,194.8180 L 186.8593,194.7333 L 186.8593,194.5640 L 185.7587,194.5640 L 185.6740,194.4793 L 185.6740,194.3100 L 184.9967,194.3100 L 184.9967,194.4793 L 184.9120,194.5640 L 183.8113,194.5640 L 183.8113,194.7333 L 183.7267,194.8180 L 183.3880,194.8180 L 183.3880,194.9873 L 183.3033,195.0720 L 182.1180,195.0720 L 182.1180,195.1567 L 181.9487,195.2413 L 181.8640,195.0720 L 180.7633,195.0720 L 180.6787,194.9873 L 180.6787,194.8180 L 180.2553,194.8180 L 180.1707,194.7333 L 180.1707,194.5640 L 179.7473,194.5640 L 179.6627,194.4793 L 179.6627,194.3100 L 179.4933,194.2253 L 179.4933,194.0560 L 179.3240,194.0560 L 179.2393,193.8867 L 179.0700,193.8867 L 178.9853,193.8020 L 178.9853,193.3787 L 178.8160,193.3787 L 178.7313,193.2940 L 178.7313,192.8707 L 178.5620,192.8707 L 178.4773,192.7860 L 178.4773,191.2620 L 178.5620,191.1773 L 178.7313,191.1773 L 178.7313,190.7540 L 178.8160,190.6693 L 178.9853,190.6693 L 178.9853,190.2460 L 179.0700,190.1613 L 179.2393,190.1613 L 179.3240,189.9920 L 179.4933,189.9920 L 179.4933,189.8227 L 179.6627,189.7380 L 179.6627,189.5687 L 179.7473,189.4840 L 179.9167,189.4840 L 179.9167,189.3147 L 180.0013,189.2300 L 180.4247,189.2300 L 180.4247,189.0607 L 180.5093,188.9760 L 181.3560,188.9760 L 181.4407,188.8067 L 181.8640,188.8067 L 181.8640,188.6373 L 181.9487,188.5527 L 182.2873,188.5527 L 182.2873,188.3833 L 182.3720,188.2987 L 183.4727,188.2987 L 183.4727,188.1293 L 183.5573,188.0447 L 184.2347,188.0447 L 184.3193,188.1293 L 184.3193,188.2987 L 185.4200,188.2987 L 185.5047,188.3833 L 185.5047,188.5527 L 187.7907,188.5527 L 187.7907,188.3833 L 187.8753,188.2987 L 188.9760,188.2987 L 188.9760,188.1293 L 189.0607,188.0447 L 189.3993,188.0447 L 189.3993,187.8753 L 189.4840,187.7907 L 189.9073,187.7907 L 189.9920,187.6213 L 190.1613,187.6213 L 190.1613,187.4520 L 190.2460,187.3673 L 190.4153,187.3673 L 190.4153,187.1980 L 190.5847,187.1133 L 190.5847,186.6900 L 190.6693,186.6053 L 190.8387,186.6053 L 190.9233,186.4360 L 191.0927,186.4360 L 191.0927,186.0127 L 191.1773,185.9280 L 191.3467,185.9280 L 191.3467,185.5047 L 191.4313,185.4200 L 191.6007,185.4200 L 191.6007,183.6420 L 191.4313,183.6420 L 191.3467,183.5573 L 191.3467,181.7793 L 191.4313,181.6947 L 191.6007,181.6947 L 191.6007,181.2713 L 191.6853,181.1867 L 191.8547,181.1867 L 191.8547,180.7633 L 192.0240,180.6787 L 192.0240,180.5093 L 192.1087,180.4247 L 192.2780,180.4247 L 192.3627,180.2553 L 192.5320,180.2553 L 192.5320,180.0860 L 192.6167,180.0013 L 192.7860,180.0013 L 192.7860,179.8320 L 192.8707,179.7473 L 193.2093,179.7473 L 193.2093,179.5780 L 193.2940,179.4933 L 194.3947,179.4933 L 194.3947,179.3240 L 194.4793,179.2393 L 196.0880,179.2393 L 196.1727,179.3240 L 196.1727,179.4933 L 197.2733,179.4933 L 197.2733,179.3240 L 197.3580,179.2393 L 198.4587,179.2393 L 198.5433,179.0700 L 198.9667,179.0700 L 198.9667,178.9007 L 199.1360,178.8160 L 199.1360,178.6467 L 199.2207,178.5620 L 199.6440,178.5620 L 199.6440,178.3927 L 199.7287,178.3080 L 200.1520,178.3080 L 200.1520,178.1387 L 200.2367,178.0540 L 201.3373,178.0540 L 201.4220,177.8847 L 202.2687,177.8847 L 202.3533,178.0540 L 202.5227,178.0540 L 202.6073,177.8847 L 203.7080,177.8847 L 203.7080,177.7153 L 203.7927,177.6307 L 204.1313,177.6307 L 204.1313,177.4613 L 204.2160,177.3767 L 204.3853,177.3767 L 204.3853,177.2073 L 204.4700,177.1227 L 204.6393,177.1227 L 204.6393,176.9533 L 204.7240,176.8687 L 204.8933,176.8687 L 204.9780,176.6993 L 205.1473,176.6993 L 205.1473,176.5300 L 205.2320,176.4453 L 205.5707,176.4453 L 205.5707,176.2760 L 205.6553,176.1913 L 205.8247,176.1913 L 205.8247,176.0220 L 205.9093,175.9373 L 206.0787,175.9373 L 206.0787,175.7680 L 206.1633,175.6833 L 206.3327,175.6833 L 206.3327,175.5987 L 206.5020,175.5140 L 206.5020,175.3447 L 206.5867,175.2600 L 207.0100,175.2600 L 207.0100,175.0907 L 207.0947,175.0060 L 208.1953,175.0060 L 208.1953,174.8367 L 208.2800,174.7520 L 208.4493,174.7520 L 208.5340,174.8367 L 208.5340,175.0060 L 209.6347,175.0060 L 209.7193,175.0907 L 209.7193,175.2600 L 211.3280,175.2600 L 211.3280,175.0907 L 211.4127,175.0060 L 212.5133,175.0060 L 212.5133,174.8367 L 212.5980,174.7520 L 214.1220,174.7520 L 214.1220,174.5827 L 214.2067,174.4980 L 215.3073,174.4980 L 215.3920,174.3287 L 216.2387,174.3287 Z" fill="white" stroke="none" /><path d="M 216.2387,9.9060 L 216.3233,9.9907 L 216.3233,81.8727 L 216.1540,81.9573 L 216.0693,81.7880 L 214.9687,81.7880 L 214.8840,81.7033 L 214.8840,81.5340 L 214.4607,81.5340 L 214.3760,81.4493 L 214.3760,81.2800 L 214.2067,81.2800 L 214.1220,81.1953 L 214.1220,81.0260 L 213.7833,81.0260 L 213.6987,80.9413 L 213.6987,80.7720 L 213.5293,80.7720 L 213.4447,80.6027 L 213.2753,80.6027 L 213.1907,80.5180 L 213.1907,80.3487 L 213.0213,80.3487 L 212.9367,80.2640 L 212.9367,80.0947 L 212.7673,80.0947 L 212.6827,80.0100 L 212.6827,79.8407 L 212.5133,79.7560 L 212.5133,79.5867 L 212.3440,79.5867 L 212.2593,79.4173 L 212.0900,79.4173 L 212.0053,79.3327 L 212.0053,79.1633 L 211.5820,79.1633 L 211.4973,79.0787 L 211.4973,78.9093 L 210.9047,78.9093 L 210.8200,78.8247 L 210.8200,78.6553 L 209.7193,78.6553 L 209.6347,78.5707 L 209.6347,78.4013 L 209.2113,78.4013 L 209.1267,78.2320 L 208.9573,78.1473 L 208.9573,77.9780 L 208.7880,77.9780 L 208.7033,77.8933 L 208.7033,77.7240 L 208.5340,77.7240 L 208.4493,77.6393 L 208.4493,77.4700 L 208.2800,77.4700 L 208.1953,77.3853 L 208.1953,77.2160 L 208.0260,77.2160 L 207.9413,77.1313 L 207.9413,76.7927 L 207.7720,76.7927 L 207.6873,76.7080 L 207.6873,76.2847 L 207.5180,76.2000 L 207.5180,74.5913 L 207.6873,74.5067 L 207.6873,72.9827 L 207.5180,72.8980 L 207.5180,72.4747 L 207.3487,72.4747 L 207.2640,72.3900 L 207.2640,72.0513 L 207.0947,72.0513 L 207.0100,71.9667 L 207.0100,71.7973 L 206.8407,71.7973 L 206.7560,71.7127 L 206.7560,71.5433 L 206.5867,71.5433 L 206.5020,71.4587 L 206.5020,71.2893 L 206.3327,71.2047 L 206.3327,71.0353 L 206.1633,71.0353 L 206.0787,70.8660 L 205.9093,70.8660 L 205.8247,70.7813 L 205.8247,70.6120 L 205.6553,70.6120 L 205.5707,70.5273 L 205.5707,70.1040 L 205.4013,70.1040 L 205.3167,70.0193 L 205.3167,69.6807 L 205.1473,69.5960 L 205.1473,67.7333 L 205.3167,67.6487 L 205.3167,67.3100 L 205.4013,67.2253 L 205.5707,67.2253 L 205.5707,66.0400 L 205.6553,65.9553 L 205.8247,65.9553 L 205.8247,65.6167 L 205.9093,65.5320 L 206.0787,65.5320 L 206.0787,65.1087 L 206.1633,65.0240 L 206.3327,65.0240 L 206.3327,64.8547 L 206.5020,64.7700 L 206.5867,64.6007 L 206.7560,64.6007 L 206.7560,64.1773 L 206.8407,64.0927 L 207.0100,64.0927 L 207.0100,63.6693 L 207.0947,63.5847 L 207.2640,63.5847 L 207.2640,62.0607 L 207.3487,61.9760 L 207.5180,61.9760 L 207.5180,61.5527 L 207.6873,61.4680 L 207.6873,61.1293 L 207.7720,61.0447 L 207.9413,61.0447 L 207.9413,60.6213 L 208.0260,60.5367 L 208.1953,60.5367 L 208.1953,60.1133 L 208.2800,60.0287 L 208.4493,60.0287 L 208.5340,59.8593 L 208.7033,59.8593 L 208.7033,59.6900 L 208.7880,59.6053 L 208.9573,59.6053 L 208.9573,59.4360 L 209.1267,59.3513 L 209.1267,59.1820 L 209.2113,59.0973 L 209.3807,59.0973 L 209.3807,58.7587 L 209.4653,58.6740 L 209.6347,58.6740 L 209.6347,58.2507 L 209.7193,58.1660 L 209.8887,58.1660 L 209.8887,56.5573 L 209.7193,56.5573 L 209.6347,56.4727 L 209.6347,56.1340 L 209.4653,56.1340 L 209.3807,56.0493 L 209.3807,55.6260 L 209.2113,55.6260 L 209.1267,55.5413 L 209.1267,55.3720 L 208.9573,55.2873 L 208.9573,55.1180 L 208.7880,55.1180 L 208.7033,55.0333 L 208.7033,54.6947 L 208.5340,54.6947 L 208.4493,54.6100 L 208.4493,54.1867 L 208.2800,54.1867 L 208.1953,54.1020 L 208.1953,52.5780 L 208.2800,52.4933 L 208.4493,52.4933 L 208.4493,52.0700 L 208.5340,51.9853 L 208.7033,51.9853 L 208.7033,51.5620 L 208.7880,51.4773 L 208.9573,51.4773 L 208.9573,51.1387 L 209.1267,51.0540 L 209.1267,50.6307 L 209.2113,50.5460 L 209.3807,50.5460 L 209.3807,49.0220 L 209.2113,49.0220 L 209.1267,48.9373 L 209.1267,48.5140 L 208.9573,48.4293 L 208.9573,48.0060 L 208.7880,48.0060 L 208.7033,47.9213 L 208.7033,47.7520 L 208.5340,47.7520 L 208.4493,47.5827 L 208.2800,47.5827 L 208.1953,47.4980 L 208.1953,47.3287 L 207.7720,47.3287 L 207.6873,47.2440 L 207.6873,47.0747 L 206.5867,47.0747 L 206.5020,46.9900 L 206.5020,46.8207 L 205.6553,46.8207 L 205.6553,46.9900 L 205.5707,47.0747 L 204.4700,47.0747 L 204.4700,47.2440 L 204.3853,47.3287 L 204.2160,47.3287 L 204.1313,47.2440 L 204.1313,47.0747 L 203.0307,47.0747 L 202.9460,46.9900 L 202.9460,46.8207 L 202.6073,46.8207 L 202.5227,46.7360 L 202.5227,46.5667 L 202.3533,46.5667 L 202.2687,46.3973 L 202.0993,46.3973 L 202.0147,46.3127 L 202.0147,46.1433 L 201.8453,46.1433 L 201.7607,46.0587 L 201.7607,45.8893 L 201.5913,45.8047 L 201.5913,45.6353 L 201.4220,45.6353 L 201.3373,45.5507 L 201.3373,45.2120 L 201.1680,45.2120 L 201.0833,45.1273 L 201.0833,44.7040 L 200.9140,44.7040 L 200.8293,44.6193 L 200.8293,43.0107 L 200.6600,43.0107 L 200.5753,42.9260 L 200.5753,42.5873 L 200.4060,42.5027 L 200.4060,42.0793 L 200.2367,42.0793 L 200.1520,41.9947 L 200.1520,41.8253 L 199.9827,41.8253 L 199.8980,41.6560 L 199.7287,41.6560 L 199.6440,41.5713 L 199.6440,41.4020 L 199.4747,41.4020 L 199.3900,41.3173 L 199.3900,41.1480 L 199.0513,41.1480 L 198.9667,41.0633 L 198.9667,40.8940 L 198.7973,40.8940 L 198.7127,40.8093 L 198.7127,40.6400 L 198.5433,40.6400 L 198.4587,40.4707 L 198.2893,40.4707 L 198.2047,40.3860 L 198.2047,40.2167 L 198.0353,40.2167 L 197.9507,40.1320 L 197.9507,39.9627 L 197.6120,39.9627 L 197.5273,39.8780 L 197.5273,39.7087 L 196.4267,39.7087 L 196.3420,39.6240 L 196.3420,39.4547 L 196.1727,39.4547 L 196.1727,39.6240 L 196.0880,39.7087 L 194.9873,39.7087 L 194.9873,39.8780 L 194.9027,39.9627 L 194.4793,39.9627 L 194.4793,40.1320 L 194.3100,40.2167 L 194.3100,40.3860 L 194.2253,40.4707 L 194.0560,40.4707 L 193.9713,40.6400 L 193.8020,40.6400 L 193.8020,40.8093 L 193.7173,40.8940 L 193.5480,40.8940 L 193.5480,41.0633 L 193.4633,41.1480 L 193.2940,41.1480 L 193.2940,41.3173 L 193.1247,41.4020 L 193.1247,41.7407 L 193.0400,41.8253 L 192.8707,41.8253 L 192.8707,42.2487 L 192.7860,42.3333 L 192.6167,42.3333 L 192.6167,43.4340 L 192.5320,43.5187 L 192.3627,43.5187 L 192.3627,43.9420 L 192.2780,44.0267 L 192.1087,44.0267 L 192.1087,44.3653 L 191.9393,44.4500 L 191.9393,44.6193 L 191.8547,44.7040 L 191.6853,44.7040 L 191.6853,44.8733 L 191.6007,44.9580 L 191.4313,44.9580 L 191.4313,45.1273 L 191.3467,45.2120 L 190.9233,45.2120 L 190.8387,45.3813 L 189.7380,45.3813 L 189.7380,45.5507 L 189.6533,45.6353 L 189.4840,45.6353 L 189.3993,45.5507 L 189.3993,45.3813 L 188.2987,45.3813 L 188.2140,45.2120 L 188.1293,45.2120 L 188.0447,45.3813 L 186.9440,45.3813 L 186.9440,45.5507 L 186.8593,45.6353 L 186.4360,45.6353 L 186.4360,45.8047 L 186.3513,45.8893 L 185.7587,45.8893 L 185.7587,46.0587 L 185.6740,46.1433 L 184.9967,46.1433 L 184.9967,46.3127 L 184.9120,46.3973 L 184.5733,46.3973 L 184.4887,46.5667 L 184.3193,46.5667 L 184.3193,46.7360 L 184.2347,46.8207 L 184.0653,46.8207 L 184.0653,46.9900 L 183.9807,47.0747 L 183.8113,47.0747 L 183.8113,47.2440 L 183.7267,47.3287 L 183.5573,47.3287 L 183.5573,47.6673 L 183.3880,47.7520 L 183.3880,48.1753 L 183.3033,48.2600 L 183.1340,48.2600 L 183.1340,48.4293 L 183.0493,48.5140 L 182.8800,48.5140 L 182.8800,48.6833 L 182.7953,48.7680 L 182.6260,48.7680 L 182.6260,48.9373 L 182.5413,49.0220 L 182.1180,49.0220 L 182.1180,49.1067 L 181.9487,49.1913 L 181.9487,49.3607 L 181.8640,49.4453 L 181.6947,49.4453 L 181.6947,49.6147 L 181.6100,49.6993 L 181.4407,49.6993 L 181.4407,49.8687 L 181.3560,49.9533 L 181.1867,49.9533 L 181.1867,50.2920 L 181.1020,50.3767 L 180.9327,50.3767 L 180.9327,50.8000 L 180.7633,50.8847 L 180.7633,52.4933 L 180.9327,52.5780 L 180.9327,52.9167 L 181.1020,52.9167 L 181.1867,53.0013 L 181.1867,53.4247 L 181.3560,53.4247 L 181.4407,53.5093 L 181.4407,53.8480 L 181.6100,53.8480 L 181.6947,53.9327 L 181.6947,54.3560 L 181.8640,54.3560 L 181.9487,54.4407 L 181.9487,55.0333 L 182.1180,55.1180 L 182.1180,55.5413 L 182.2873,55.5413 L 182.3720,55.6260 L 182.3720,56.0493 L 182.5413,56.0493 L 182.6260,56.2187 L 182.7953,56.2187 L 182.8800,56.3033 L 182.8800,56.4727 L 183.0493,56.4727 L 183.1340,56.5573 L 183.1340,56.9807 L 183.3033,56.9807 L 183.3880,57.0653 L 183.3880,57.4040 L 183.5573,57.4887 L 183.5573,59.3513 L 183.3880,59.4360 L 183.3880,59.8593 L 183.3033,59.9440 L 183.1340,59.9440 L 183.1340,61.7220 L 183.3033,61.7220 L 183.3880,61.8067 L 183.3880,62.2300 L 183.5573,62.3147 L 183.5573,62.6533 L 183.7267,62.6533 L 183.8113,62.7380 L 183.8113,62.9073 L 183.9807,62.9073 L 184.0653,62.9920 L 184.0653,63.1613 L 184.2347,63.1613 L 184.3193,63.2460 L 184.3193,63.4153 L 184.6580,63.4153 L 184.7427,63.5847 L 185.6740,63.5847 L 185.7587,63.6693 L 185.7587,63.8387 L 186.8593,63.8387 L 186.9440,63.9233 L 186.9440,64.0927 L 188.0447,64.0927 L 188.1293,64.1773 L 188.1293,64.3467 L 188.4680,64.3467 L 188.5527,64.4313 L 188.5527,64.6007 L 188.7220,64.6007 L 188.8067,64.7700 L 188.9760,64.7700 L 189.0607,64.8547 L 189.0607,65.0240 L 189.3993,65.0240 L 189.4840,65.1087 L 189.4840,65.2780 L 190.1613,65.2780 L 190.2460,65.3627 L 190.2460,65.5320 L 190.5847,65.5320 L 190.6693,65.6167 L 190.6693,65.7860 L 190.8387,65.7860 L 190.9233,65.9553 L 191.0927,65.9553 L 191.1773,66.0400 L 191.1773,66.2093 L 191.6007,66.2093 L 191.6853,66.2940 L 191.6853,66.4633 L 191.8547,66.4633 L 191.9393,66.5480 L 191.9393,66.7173 L 192.1087,66.8020 L 192.1087,66.9713 L 192.2780,66.9713 L 192.3627,67.0560 L 192.3627,67.2253 L 192.5320,67.2253 L 192.6167,67.3947 L 192.7860,67.3947 L 192.8707,67.4793 L 192.8707,67.9027 L 193.0400,67.9027 L 193.1247,67.9873 L 193.1247,68.4107 L 193.2940,68.4953 L 193.2940,69.3420 L 193.4633,69.3420 L 193.5480,69.4267 L 193.5480,69.7653 L 193.7173,69.7653 L 193.8020,69.8500 L 193.8020,70.2733 L 193.9713,70.2733 L 194.0560,70.3580 L 194.0560,70.5273 L 194.2253,70.5273 L 194.3100,70.6120 L 194.3100,70.7813 L 194.3947,70.7813 L 194.4793,70.9507 L 194.6487,70.9507 L 194.7333,71.0353 L 194.7333,71.2047 L 194.9027,71.2047 L 194.9873,71.2893 L 194.9873,71.4587 L 195.1567,71.4587 L 195.2413,71.5433 L 195.2413,71.7127 L 195.4107,71.7127 L 195.4953,71.7973 L 195.4953,72.1360 L 195.6647,72.2207 L 195.6647,72.6440 L 195.8340,72.6440 L 195.9187,72.7287 L 195.9187,73.1520 L 196.0880,73.1520 L 196.1727,73.3213 L 196.3420,73.3213 L 196.4267,73.4060 L 196.4267,73.5753 L 196.5960,73.5753 L 196.6807,73.6600 L 196.6807,73.8293 L 196.8500,73.9140 L 196.8500,74.0833 L 197.0193,74.0833 L 197.1040,74.1680 L 197.1040,74.3373 L 197.2733,74.3373 L 197.3580,74.5067 L 197.7813,74.5067 L 197.8660,74.5913 L 197.8660,74.7607 L 198.2047,74.7607 L 198.2893,74.8453 L 198.2893,75.0147 L 198.7127,75.0147 L 198.7973,75.0993 L 198.7973,75.2687 L 199.8980,75.2687 L 199.9827,75.3533 L 199.9827,75.5227 L 200.4060,75.5227 L 200.4907,75.6920 L 200.6600,75.7767 L 200.6600,75.9460 L 200.8293,75.9460 L 200.9140,76.0307 L 200.9140,76.2000 L 201.0833,76.2000 L 201.1680,76.2847 L 201.1680,76.4540 L 201.3373,76.4540 L 201.4220,76.5387 L 201.4220,76.9620 L 201.5913,76.9620 L 201.6760,77.0467 L 201.6760,77.3853 L 201.8453,77.4700 L 201.8453,80.6873 L 202.0147,80.6873 L 202.0993,80.7720 L 202.0993,81.1953 L 202.2687,81.1953 L 202.3533,81.2800 L 202.3533,81.7033 L 202.5227,81.7033 L 202.6073,81.8727 L 202.7767,81.8727 L 202.8613,81.9573 L 202.8613,82.1267 L 203.0307,82.2113 L 203.0307,82.3807 L 203.4540,82.3807 L 203.5387,82.4653 L 203.5387,82.6347 L 204.6393,82.6347 L 204.7240,82.7193 L 204.7240,82.8887 L 205.1473,82.8887 L 205.2320,83.0580 L 205.4013,83.1427 L 205.4013,83.3120 L 205.5707,83.3120 L 205.6553,83.3967 L 205.6553,83.5660 L 205.8247,83.5660 L 205.9093,83.6507 L 205.9093,84.0740 L 206.0787,84.0740 L 206.1633,84.1587 L 206.1633,84.4973 L 206.3327,84.4973 L 206.4173,84.5820 L 206.4173,86.4447 L 206.3327,86.5293 L 206.1633,86.5293 L 206.1633,86.8680 L 206.0787,86.9527 L 205.9093,86.9527 L 205.9093,87.3760 L 205.8247,87.4607 L 205.6553,87.4607 L 205.6553,87.6300 L 205.5707,87.7147 L 205.4013,87.7147 L 205.4013,87.8840 L 205.2320,87.9687 L 205.1473,88.1380 L 204.7240,88.1380 L 204.7240,88.3073 L 204.6393,88.3920 L 204.2160,88.3920 L 204.2160,88.5613 L 204.1313,88.6460 L 203.0307,88.6460 L 203.0307,88.8153 L 202.9460,88.9000 L 202.6073,88.9000 L 202.5227,88.8153 L 202.5227,88.6460 L 201.4220,88.6460 L 201.3373,88.5613 L 201.3373,88.3920 L 200.9140,88.3920 L 200.8293,88.3073 L 200.8293,88.1380 L 199.7287,88.1380 L 199.6440,87.9687 L 199.2207,87.9687 L 199.1360,88.1380 L 198.0353,88.1380 L 198.0353,88.3073 L 197.9507,88.3920 L 197.6120,88.3920 L 197.6120,88.5613 L 197.5273,88.6460 L 197.3580,88.6460 L 197.3580,88.8153 L 197.2733,88.9000 L 197.1040,88.9000 L 197.1040,89.0693 L 197.0193,89.1540 L 196.8500,89.1540 L 196.8500,89.4927 L 196.6807,89.5773 L 196.6807,90.0007 L 196.5960,90.0853 L 196.4267,90.0853 L 196.4267,91.8633 L 196.5960,91.8633 L 196.6807,91.9480 L 196.6807,92.3713 L 196.8500,92.4560 L 196.8500,92.7947 L 197.0193,92.7947 L 197.1040,92.8793 L 197.1040,94.9960 L 197.2733,94.9960 L 197.3580,95.0807 L 197.3580,95.4193 L 197.5273,95.4193 L 197.6120,95.5040 L 197.6120,95.9273 L 197.7813,95.9273 L 197.8660,96.0120 L 197.8660,96.4353 L 198.0353,96.5200 L 198.0353,98.2980 L 198.2047,98.2980 L 198.2893,98.3827 L 198.2893,98.8060 L 198.4587,98.8060 L 198.5433,98.8907 L 198.5433,99.2293 L 198.7127,99.2293 L 198.7973,99.3140 L 198.7973,99.4833 L 198.9667,99.4833 L 199.0513,99.5680 L 199.0513,99.7373 L 199.2207,99.8220 L 199.2207,99.9913 L 199.6440,99.9913 L 199.7287,100.1607 L 200.4060,100.1607 L 200.4907,100.2453 L 200.4907,100.4147 L 201.5913,100.4147 L 201.6760,100.4993 L 201.6760,100.6687 L 202.0147,100.6687 L 202.0993,100.7533 L 202.0993,100.9227 L 202.2687,100.9227 L 202.3533,101.0073 L 202.3533,101.1767 L 202.5227,101.1767 L 202.6073,101.3460 L 202.7767,101.3460 L 202.8613,101.4307 L 202.8613,101.6000 L 203.0307,101.6847 L 203.0307,101.8540 L 203.2000,101.8540 L 203.2847,101.9387 L 203.2847,102.1080 L 203.4540,102.1080 L 203.5387,102.1927 L 203.5387,102.3620 L 203.7080,102.3620 L 203.7927,102.4467 L 203.7927,102.7853 L 203.9620,102.7853 L 204.0467,102.8700 L 204.0467,103.2933 L 204.2160,103.3780 L 204.2160,104.9020 L 204.0467,104.9867 L 204.0467,105.4100 L 203.9620,105.4947 L 203.7927,105.4947 L 203.7927,105.9180 L 203.7080,106.0027 L 203.5387,106.0027 L 203.5387,106.1720 L 203.4540,106.2567 L 203.2847,106.2567 L 203.2000,106.4260 L 203.0307,106.4260 L 203.0307,106.5953 L 202.9460,106.6800 L 202.6073,106.6800 L 202.6073,106.8493 L 202.5227,106.9340 L 201.4220,106.9340 L 201.4220,107.1033 L 201.3373,107.1880 L 200.2367,107.1880 L 200.2367,107.3573 L 200.1520,107.4420 L 199.4747,107.4420 L 199.3900,107.6113 L 199.0513,107.6113 L 199.0513,107.7807 L 198.9667,107.8653 L 198.5433,107.8653 L 198.5433,108.0347 L 198.4587,108.1193 L 198.2893,108.1193 L 198.2893,108.2887 L 198.2047,108.3733 L 198.0353,108.3733 L 198.0353,108.5427 L 197.8660,108.6273 L 197.8660,108.9660 L 197.7813,109.0507 L 197.6120,109.0507 L 197.6120,109.4740 L 197.5273,109.5587 L 197.3580,109.5587 L 197.3580,111.3367 L 197.5273,111.3367 L 197.6120,111.4213 L 197.6120,111.8447 L 197.7813,111.8447 L 197.8660,111.9293 L 197.8660,112.2680 L 198.0353,112.3527 L 198.0353,113.2840 L 198.2047,113.2840 L 198.2893,113.3687 L 198.2893,113.7073 L 198.4587,113.7073 L 198.5433,113.7920 L 198.5433,114.2153 L 198.7127,114.2153 L 198.7973,114.3000 L 198.7973,114.4693 L 198.9667,114.4693 L 199.0513,114.5540 L 199.0513,114.7233 L 199.1360,114.7233 L 199.2207,114.8927 L 199.6440,114.8927 L 199.7287,114.9773 L 199.7287,115.1467 L 200.1520,115.1467 L 200.2367,115.2313 L 200.2367,115.4007 L 201.3373,115.4007 L 201.4220,115.4853 L 201.4220,115.6547 L 201.7607,115.6547 L 201.8453,115.7393 L 201.8453,115.9087 L 202.0147,115.9087 L 202.0993,116.0780 L 202.2687,116.0780 L 202.3533,116.1627 L 202.3533,116.3320 L 202.5227,116.3320 L 202.6073,116.4167 L 202.6073,116.8400 L 202.7767,116.8400 L 202.8613,116.9247 L 202.8613,117.2633 L 203.0307,117.3480 L 203.0307,118.9567 L 202.8613,119.0413 L 202.8613,119.4647 L 202.7767,119.5493 L 202.6073,119.5493 L 202.6073,119.8880 L 202.5227,119.9727 L 202.3533,119.9727 L 202.3533,120.1420 L 202.2687,120.2267 L 202.0993,120.2267 L 202.0993,120.3960 L 202.0147,120.4807 L 201.8453,120.4807 L 201.8453,120.6500 L 201.7607,120.7347 L 201.4220,120.7347 L 201.3373,120.9040 L 200.2367,120.9040 L 200.2367,121.0733 L 200.1520,121.1580 L 199.7287,121.1580 L 199.6440,121.0733 L 199.6440,120.9040 L 198.5433,120.9040 L 198.4587,120.7347 L 198.0353,120.7347 L 197.9507,120.9040 L 196.8500,120.9040 L 196.8500,121.0733 L 196.7653,121.1580 L 196.4267,121.1580 L 196.4267,121.3273 L 196.3420,121.4120 L 196.1727,121.4120 L 196.1727,121.5813 L 196.0880,121.6660 L 195.9187,121.6660 L 195.9187,121.8353 L 195.8340,121.9200 L 195.6647,121.9200 L 195.6647,122.2587 L 195.4953,122.3433 L 195.4953,122.7667 L 195.4107,122.8513 L 195.2413,122.8513 L 195.2413,123.1900 L 195.1567,123.2747 L 194.9873,123.2747 L 194.9873,123.4440 L 194.9027,123.5287 L 194.7333,123.5287 L 194.7333,123.6980 L 194.6487,123.7827 L 194.4793,123.7827 L 194.4793,123.9520 L 194.3947,124.0367 L 194.0560,124.0367 L 194.0560,124.2060 L 193.9713,124.2907 L 193.5480,124.2907 L 193.5480,124.4600 L 193.4633,124.5447 L 193.2940,124.5447 L 193.2940,124.6293 L 193.1247,124.7140 L 193.1247,124.8833 L 193.0400,124.9680 L 192.8707,124.9680 L 192.8707,125.1373 L 192.7860,125.2220 L 192.6167,125.2220 L 192.6167,125.6453 L 192.5320,125.7300 L 192.3627,125.7300 L 192.3627,126.0687 L 192.2780,126.1533 L 192.1087,126.1533 L 192.1087,127.7620 L 192.2780,127.7620 L 192.3627,127.8467 L 192.3627,128.1853 L 192.5320,128.1853 L 192.6167,128.2700 L 192.6167,128.6933 L 192.7860,128.6933 L 192.8707,128.7780 L 192.8707,129.2013 L 193.0400,129.2013 L 193.1247,129.2860 L 193.1247,129.6247 L 193.2940,129.7093 L 193.2940,131.3180 L 193.1247,131.4027 L 193.1247,131.7413 L 193.0400,131.8260 L 192.8707,131.8260 L 192.8707,132.2493 L 192.7860,132.3340 L 192.6167,132.3340 L 192.6167,132.5033 L 192.5320,132.5880 L 192.3627,132.5880 L 192.3627,132.7573 L 192.2780,132.8420 L 192.1087,132.8420 L 192.1087,132.9267 L 191.9393,133.0113 L 191.9393,133.1807 L 191.8547,133.2653 L 191.6853,133.2653 L 191.6853,133.4347 L 191.6007,133.5193 L 191.4313,133.5193 L 191.4313,133.6887 L 191.3467,133.7733 L 191.1773,133.7733 L 191.1773,133.9427 L 191.0927,134.0273 L 190.9233,134.0273 L 190.9233,134.1967 L 190.8387,134.2813 L 190.6693,134.2813 L 190.5847,134.4507 L 190.2460,134.4507 L 190.2460,134.6200 L 190.1613,134.7047 L 189.0607,134.7047 L 189.0607,134.8740 L 188.9760,134.9587 L 188.5527,134.9587 L 188.5527,135.1280 L 188.4680,135.2127 L 188.2987,135.2127 L 188.2987,135.3820 L 188.1293,135.4667 L 188.0447,135.6360 L 187.8753,135.6360 L 187.8753,135.8053 L 187.7907,135.8900 L 187.6213,135.8900 L 187.6213,136.3133 L 187.5367,136.3980 L 187.3673,136.3980 L 187.3673,136.7367 L 187.2827,136.8213 L 187.1133,136.8213 L 187.1133,138.4300 L 187.2827,138.4300 L 187.3673,138.5147 L 187.3673,138.9380 L 187.5367,138.9380 L 187.6213,139.0227 L 187.6213,139.3613 L 187.7907,139.3613 L 187.8753,139.4460 L 187.8753,139.6153 L 188.0447,139.6153 L 188.1293,139.7000 L 188.1293,140.1233 L 188.2987,140.2080 L 188.2987,140.5467 L 188.4680,140.5467 L 188.5527,140.6313 L 188.5527,142.4940 L 188.4680,142.5787 L 188.2987,142.5787 L 188.2987,142.9173 L 188.1293,143.0020 L 188.1293,143.4253 L 188.0447,143.5100 L 187.8753,143.5100 L 187.8753,143.6793 L 187.7907,143.7640 L 187.6213,143.7640 L 187.6213,143.9333 L 187.5367,144.0180 L 187.3673,144.0180 L 187.2827,144.1873 L 187.1133,144.1873 L 187.1133,144.3567 L 187.0287,144.4413 L 186.6900,144.4413 L 186.6900,144.6107 L 186.6053,144.6953 L 186.1820,144.6953 L 186.1820,144.8647 L 186.0973,144.9493 L 185.2507,144.9493 L 185.2507,145.1187 L 185.1660,145.2033 L 184.7427,145.2033 L 184.6580,145.3727 L 184.3193,145.3727 L 184.3193,145.5420 L 184.2347,145.6267 L 183.8113,145.6267 L 183.8113,145.7960 L 183.7267,145.8807 L 182.8800,145.8807 L 182.8800,146.0500 L 182.7953,146.1347 L 182.3720,146.1347 L 182.3720,146.3040 L 182.2873,146.3887 L 181.9487,146.3887 L 181.8640,146.5580 L 180.7633,146.5580 L 180.7633,146.7273 L 180.6787,146.8120 L 180.5093,146.8120 L 180.4247,146.7273 L 180.4247,146.5580 L 179.3240,146.5580 L 179.2393,146.3887 L 178.8160,146.3887 L 178.7313,146.3040 L 178.7313,146.1347 L 178.5620,146.1347 L 178.4773,146.0500 L 178.4773,145.8807 L 178.3080,145.7960 L 178.3080,145.6267 L 178.1387,145.6267 L 178.0540,145.5420 L 178.0540,145.3727 L 177.6307,145.3727 L 177.5460,145.2033 L 176.6993,145.2033 L 176.6147,145.1187 L 176.6147,144.9493 L 176.1913,144.9493 L 176.1067,144.8647 L 176.1067,144.6953 L 175.9373,144.6107 L 175.9373,144.4413 L 175.7680,144.4413 L 175.6833,144.3567 L 175.6833,144.1873 L 175.5140,144.1873 L 175.4293,144.0180 L 175.2600,144.0180 L 175.1753,143.9333 L 175.1753,143.7640 L 175.0060,143.7640 L 174.9213,143.6793 L 174.9213,143.2560 L 174.7520,143.1713 L 174.7520,143.0020 L 174.5827,143.0020 L 174.4980,142.9173 L 174.4980,142.7480 L 174.3287,142.7480 L 174.2440,142.5787 L 174.0747,142.5787 L 173.9900,142.4940 L 173.9900,142.3247 L 173.8207,142.3247 L 173.7360,142.2400 L 173.7360,142.0707 L 173.5667,142.0707 L 173.4820,141.9860 L 173.4820,141.8167 L 173.3127,141.7320 L 173.3127,141.5627 L 173.1433,141.5627 L 173.0587,141.3933 L 172.6353,141.3933 L 172.5507,141.3087 L 172.5507,141.1393 L 171.4500,141.1393 L 171.3653,141.0547 L 171.3653,140.8853 L 171.0267,140.8853 L 171.0267,141.0547 L 170.9420,141.1393 L 169.8413,141.1393 L 169.8413,141.3087 L 169.7567,141.3933 L 169.3333,141.3933 L 169.2487,141.5627 L 169.0793,141.5627 L 169.0793,141.7320 L 168.9947,141.8167 L 168.8253,141.8167 L 168.8253,141.9860 L 168.6560,142.0707 L 168.6560,142.2400 L 168.5713,142.3247 L 168.4020,142.3247 L 168.4020,142.4940 L 168.3173,142.5787 L 168.1480,142.5787 L 168.1480,142.9173 L 168.0633,143.0020 L 167.8940,143.0020 L 167.8940,143.4253 L 167.8093,143.5100 L 167.6400,143.5100 L 167.6400,145.1187 L 167.8093,145.1187 L 167.8940,145.2033 L 167.8940,145.5420 L 168.0633,145.5420 L 168.1480,145.6267 L 168.1480,146.0500 L 168.3173,146.0500 L 168.4020,146.1347 L 168.4020,146.3040 L 168.5713,146.3040 L 168.6560,146.4733 L 168.8253,146.5580 L 168.8253,146.7273 L 168.9947,146.7273 L 169.0793,146.8120 L 169.0793,146.9813 L 169.2487,146.9813 L 169.3333,147.0660 L 169.3333,147.4893 L 169.5027,147.4893 L 169.5873,147.5740 L 169.5873,147.9127 L 169.7567,147.9127 L 169.8413,147.9973 L 169.8413,148.6747 L 170.0107,148.7593 L 170.0107,149.0980 L 170.1800,149.0980 L 170.2647,149.1827 L 170.2647,149.6060 L 170.4340,149.6060 L 170.5187,149.6907 L 170.5187,149.8600 L 170.6880,149.8600 L 170.7727,149.9447 L 170.7727,150.2833 L 170.9420,150.2833 L 171.0267,150.3680 L 171.0267,150.7913 L 171.1960,150.8760 L 171.1960,152.4000 L 171.0267,152.4847 L 171.0267,153.4160 L 170.9420,153.5007 L 170.7727,153.5007 L 170.7727,153.8393 L 170.6880,153.9240 L 170.5187,153.9240 L 170.5187,154.3473 L 170.4340,154.4320 L 170.2647,154.4320 L 170.2647,154.6013 L 170.1800,154.6860 L 170.0107,154.6860 L 170.0107,154.8553 L 169.8413,154.9400 L 169.7567,155.1093 L 169.3333,155.1093 L 169.3333,155.2787 L 169.2487,155.3633 L 168.1480,155.3633 L 168.1480,155.5327 L 168.0633,155.6173 L 167.6400,155.6173 L 167.6400,155.7867 L 167.4707,155.8713 L 167.4707,156.0407 L 167.3860,156.1253 L 167.2167,156.1253 L 167.1320,156.2947 L 166.9627,156.2947 L 166.9627,156.4640 L 166.8780,156.5487 L 166.7087,156.5487 L 166.7087,156.9720 L 166.6240,157.0567 L 166.4547,157.0567 L 166.4547,157.3953 L 166.2853,157.4800 L 166.2853,157.9033 L 166.2007,157.9880 L 166.0313,157.9880 L 166.0313,158.4113 L 165.9467,158.4960 L 165.7773,158.4960 L 165.6927,158.6653 L 165.5233,158.6653 L 165.5233,158.8347 L 165.4387,158.9193 L 165.2693,158.9193 L 165.2693,159.0887 L 165.1847,159.1733 L 165.0153,159.1733 L 165.0153,159.3427 L 164.8460,159.4273 L 164.8460,159.5967 L 164.7613,159.6813 L 164.3380,159.6813 L 164.2533,159.8507 L 163.1527,159.8507 L 163.1527,160.0200 L 163.0680,160.1047 L 161.7133,160.1047 L 161.6287,160.0200 L 161.6287,159.8507 L 160.5280,159.8507 L 160.4433,159.6813 L 159.3427,159.6813 L 159.2580,159.5967 L 159.2580,159.4273 L 159.0887,159.4273 L 159.0887,159.5967 L 159.0040,159.6813 L 157.9033,159.6813 L 157.8187,159.8507 L 157.4800,159.8507 L 157.4800,160.0200 L 157.3953,160.1047 L 157.2260,160.1047 L 157.2260,160.2740 L 157.1413,160.3587 L 156.9720,160.3587 L 156.9720,160.5280 L 156.8873,160.6127 L 156.7180,160.6127 L 156.7180,160.9513 L 156.6333,161.0360 L 156.4640,161.0360 L 156.4640,161.4593 L 156.2947,161.5440 L 156.2947,164.5920 L 156.2100,164.6767 L 156.0407,164.6767 L 156.0407,167.3860 L 155.9560,167.4707 L 155.7867,167.4707 L 155.7867,170.0107 L 155.7020,170.0953 L 155.5327,170.0953 L 155.5327,175.9373 L 155.7020,175.9373 L 155.7867,176.0220 L 155.7867,176.4453 L 155.9560,176.4453 L 156.0407,176.5300 L 156.0407,178.5620 L 156.2100,178.5620 L 156.2947,178.6467 L 156.2947,179.0700 L 156.4640,179.1547 L 156.4640,179.4933 L 156.6333,179.4933 L 156.7180,179.5780 L 156.7180,179.7473 L 156.8873,179.7473 L 156.9720,179.8320 L 156.9720,180.2553 L 157.1413,180.2553 L 157.2260,180.3400 L 157.2260,180.6787 L 157.3953,180.6787 L 157.4800,180.7633 L 157.4800,180.9327 L 157.6493,180.9327 L 157.7340,181.0173 L 157.7340,181.4407 L 157.9033,181.5253 L 157.9033,181.8640 L 158.0727,181.8640 L 158.1573,181.9487 L 158.1573,182.3720 L 158.3267,182.3720 L 158.4113,182.4567 L 158.4113,185.2507 L 158.3267,185.3353 L 158.1573,185.3353 L 158.1573,185.6740 L 158.0727,185.7587 L 157.9033,185.7587 L 157.9033,186.4360 L 157.7340,186.5207 L 157.7340,187.1133 L 157.6493,187.1980 L 157.4800,187.1980 L 157.4800,188.0447 L 157.3953,188.1293 L 157.2260,188.1293 L 157.2260,188.9760 L 157.1413,189.0607 L 156.9720,189.0607 L 156.9720,189.9920 L 156.8873,190.0767 L 156.7180,190.0767 L 156.7180,192.3627 L 156.6333,192.4473 L 156.4640,192.4473 L 156.4640,192.7860 L 156.2947,192.8707 L 156.2947,193.2940 L 156.2100,193.3787 L 156.0407,193.3787 L 156.0407,193.5480 L 155.9560,193.6327 L 155.7867,193.6327 L 155.7867,193.8020 L 155.7020,193.8867 L 155.5327,193.8867 L 155.4480,194.0560 L 155.2787,194.0560 L 155.2787,194.2253 L 155.1093,194.3100 L 155.1093,194.7333 L 155.0247,194.8180 L 154.8553,194.8180 L 154.8553,195.1567 L 154.7707,195.2413 L 154.6013,195.2413 L 154.6013,195.6647 L 154.5167,195.7493 L 154.3473,195.7493 L 154.3473,197.3580 L 154.5167,197.3580 L 154.6013,197.4427 L 154.6013,197.7813 L 154.7707,197.7813 L 154.8553,197.8660 L 154.8553,198.2893 L 155.0247,198.2893 L 155.1093,198.3740 L 155.1093,199.8980 L 155.0247,199.9827 L 131.5720,199.9827 L 131.4873,199.8980 L 131.4873,196.0033 L 131.5720,195.9187 L 131.7413,195.9187 L 131.7413,195.4953 L 131.8260,195.4107 L 131.9953,195.4107 L 131.9953,195.0720 L 132.1647,194.9873 L 132.1647,194.8180 L 132.2493,194.7333 L 132.4187,194.7333 L 132.4187,194.5640 L 132.5033,194.4793 L 132.6727,194.4793 L 132.6727,194.3100 L 132.7573,194.2253 L 133.1807,194.2253 L 133.1807,194.0560 L 133.2653,193.9713 L 133.6040,193.9713 L 133.6887,193.8020 L 134.7893,193.8020 L 134.7893,193.6327 L 134.8740,193.5480 L 135.5513,193.5480 L 135.6360,193.6327 L 135.6360,193.8020 L 136.7367,193.8020 L 136.8213,193.9713 L 137.1600,193.9713 L 137.2447,194.0560 L 137.2447,194.2253 L 138.3453,194.2253 L 138.4300,194.3100 L 138.4300,194.4793 L 139.2767,194.4793 L 139.2767,194.3100 L 139.3613,194.2253 L 140.5467,194.2253 L 140.5467,194.0560 L 140.6313,193.9713 L 140.9700,193.9713 L 141.0547,193.8020 L 141.2240,193.8020 L 141.2240,193.6327 L 141.3087,193.5480 L 141.4780,193.5480 L 141.4780,193.3787 L 141.5627,193.2940 L 141.7320,193.2940 L 141.7320,192.8707 L 141.9013,192.7860 L 141.9013,192.4473 L 141.9860,192.3627 L 142.1553,192.3627 L 142.1553,186.5207 L 142.2400,186.4360 L 142.4093,186.4360 L 142.4093,185.0813 L 142.4940,184.9967 L 142.6633,184.9967 L 142.6633,181.2713 L 142.7480,181.1867 L 142.9173,181.1867 L 142.9173,176.0220 L 143.0867,175.9373 L 143.0867,168.2327 L 142.9173,168.1480 L 142.9173,166.0313 L 142.7480,166.0313 L 142.6633,165.9467 L 142.6633,164.4227 L 142.4940,164.4227 L 142.4093,164.3380 L 142.4093,162.9833 L 142.2400,162.9833 L 142.1553,162.8987 L 142.1553,161.2900 L 141.9860,161.2900 L 141.9013,161.2053 L 141.9013,159.8507 L 141.7320,159.7660 L 141.7320,157.4800 L 141.9013,157.3953 L 141.9013,157.0567 L 141.9860,156.9720 L 142.1553,156.9720 L 142.1553,156.5487 L 142.2400,156.4640 L 142.4093,156.4640 L 142.4093,156.2947 L 142.4940,156.2100 L 142.6633,156.2100 L 142.7480,156.0407 L 142.9173,156.0407 L 142.9173,155.8713 L 143.0020,155.7867 L 143.3407,155.7867 L 143.3407,155.6173 L 143.4253,155.5327 L 144.5260,155.5327 L 144.5260,155.3633 L 144.6107,155.2787 L 145.0340,155.2787 L 145.1187,155.3633 L 145.1187,155.5327 L 146.2193,155.5327 L 146.3040,155.6173 L 146.3040,155.7867 L 146.6427,155.7867 L 146.7273,155.8713 L 146.7273,156.0407 L 147.8280,156.0407 L 147.9127,156.2100 L 149.0980,156.2100 L 149.1827,156.0407 L 150.2833,156.0407 L 150.2833,155.8713 L 150.3680,155.7867 L 151.4687,155.7867 L 151.4687,155.6173 L 151.5533,155.5327 L 152.6540,155.5327 L 152.6540,155.3633 L 152.7387,155.2787 L 153.0773,155.2787 L 153.1620,155.3633 L 153.1620,155.5327 L 154.2627,155.5327 L 154.3473,155.6173 L 154.3473,155.7867 L 155.4480,155.7867 L 155.5327,155.8713 L 155.5327,156.0407 L 155.7020,156.0407 L 155.7020,155.8713 L 155.7867,155.7867 L 156.8873,155.7867 L 156.8873,155.6173 L 156.9720,155.5327 L 157.3953,155.5327 L 157.3953,155.3633 L 157.4800,155.2787 L 157.6493,155.2787 L 157.6493,155.1093 L 157.8187,155.0247 L 157.9033,154.8553 L 158.0727,154.8553 L 158.0727,154.4320 L 158.1573,154.3473 L 158.3267,154.3473 L 158.3267,153.9240 L 158.4113,153.8393 L 158.5807,153.8393 L 158.5807,153.2467 L 158.6653,153.1620 L 158.8347,153.1620 L 158.8347,150.8760 L 159.0040,150.7913 L 159.0040,150.3680 L 159.0887,150.2833 L 159.2580,150.2833 L 159.2580,149.9447 L 159.3427,149.8600 L 159.5120,149.8600 L 159.5120,149.4367 L 159.5967,149.3520 L 159.7660,149.3520 L 159.7660,147.3200 L 159.5967,147.3200 L 159.5120,147.2353 L 159.5120,146.8120 L 159.3427,146.8120 L 159.2580,146.7273 L 159.2580,146.3887 L 159.0887,146.3887 L 159.0040,146.3040 L 159.0040,145.8807 L 158.8347,145.7960 L 158.8347,143.5100 L 158.6653,143.5100 L 158.5807,143.4253 L 158.5807,143.0020 L 158.4113,143.0020 L 158.3267,142.9173 L 158.3267,141.3933 L 158.4113,141.3087 L 158.5807,141.3087 L 158.5807,139.7000 L 158.6653,139.6153 L 158.8347,139.6153 L 158.8347,138.5147 L 159.0040,138.4300 L 159.0040,138.0067 L 159.0887,137.9220 L 159.2580,137.9220 L 159.2580,137.5833 L 159.3427,137.4987 L 159.5120,137.4987 L 159.5120,137.0753 L 159.5967,136.9907 L 159.7660,136.9907 L 159.7660,136.3980 L 159.8507,136.3133 L 160.0200,136.3133 L 160.0200,135.8900 L 160.1893,135.8053 L 160.1893,135.4667 L 160.2740,135.3820 L 160.4433,135.3820 L 160.4433,134.2813 L 160.5280,134.1967 L 160.6973,134.1967 L 160.6973,133.7733 L 160.7820,133.6887 L 160.9513,133.6887 L 160.9513,133.2653 L 161.0360,133.1807 L 161.2053,133.1807 L 161.2053,133.0113 L 161.3747,132.9267 L 161.4593,132.7573 L 161.6287,132.7573 L 161.6287,132.5880 L 161.7133,132.5033 L 162.1367,132.5033 L 162.1367,132.3340 L 162.2213,132.2493 L 162.5600,132.2493 L 162.5600,132.0800 L 162.6447,131.9953 L 162.8140,131.9953 L 162.8140,131.8260 L 162.8987,131.7413 L 163.0680,131.7413 L 163.1527,131.5720 L 163.3220,131.5720 L 163.3220,131.4027 L 163.4067,131.3180 L 163.5760,131.3180 L 163.5760,130.8947 L 163.7453,130.8100 L 163.7453,130.4713 L 163.8300,130.3867 L 163.9993,130.3867 L 163.9993,129.4553 L 164.0840,129.3707 L 164.2533,129.3707 L 164.2533,129.0320 L 164.3380,128.9473 L 164.5073,128.9473 L 164.5073,128.5240 L 164.5920,128.4393 L 164.7613,128.4393 L 164.7613,128.1007 L 164.9307,128.0160 L 164.9307,127.5927 L 165.0153,127.5080 L 165.1847,127.5080 L 165.1847,127.0847 L 165.2693,127.0000 L 165.4387,127.0000 L 165.4387,125.4760 L 165.2693,125.4760 L 165.1847,125.3913 L 165.1847,124.9680 L 165.0153,124.9680 L 164.9307,124.8833 L 164.9307,124.5447 L 164.7613,124.4600 L 164.7613,124.2907 L 164.5920,124.2907 L 164.5073,124.2060 L 164.5073,124.0367 L 164.3380,124.0367 L 164.2533,123.9520 L 164.2533,123.7827 L 164.0840,123.7827 L 163.9993,123.6980 L 163.9993,123.5287 L 163.8300,123.5287 L 163.7453,123.4440 L 163.7453,123.2747 L 163.6607,123.2747 L 163.5760,123.1053 L 163.4067,123.1053 L 163.3220,123.0207 L 163.3220,122.5973 L 163.1527,122.5973 L 163.0680,122.5127 L 163.0680,122.0893 L 162.8987,122.0893 L 162.8140,122.0047 L 162.8140,121.6660 L 162.6447,121.6660 L 162.5600,121.5813 L 162.5600,121.1580 L 162.3907,121.0733 L 162.3907,120.7347 L 162.2213,120.7347 L 162.1367,120.6500 L 162.1367,120.4807 L 161.9673,120.4807 L 161.8827,120.3960 L 161.8827,120.2267 L 161.7133,120.2267 L 161.6287,120.1420 L 161.6287,119.9727 L 161.4593,119.9727 L 161.3747,119.8880 L 161.3747,119.5493 L 161.2053,119.4647 L 161.2053,119.0413 L 161.0360,119.0413 L 160.9513,118.9567 L 160.9513,118.5333 L 160.7820,118.5333 L 160.6973,118.4487 L 160.6973,116.4167 L 160.7820,116.3320 L 160.9513,116.3320 L 160.9513,115.9933 L 161.0360,115.9087 L 161.2053,115.9087 L 161.2053,115.4853 L 161.3747,115.4007 L 161.3747,114.9773 L 161.4593,114.8927 L 161.6287,114.8927 L 161.6287,114.5540 L 161.7133,114.4693 L 161.8827,114.4693 L 161.8827,114.0460 L 161.9673,113.9613 L 162.1367,113.9613 L 162.1367,113.5380 L 162.2213,113.4533 L 162.3907,113.4533 L 162.3907,113.1147 L 162.5600,113.0300 L 162.5600,112.6067 L 162.6447,112.5220 L 162.8140,112.5220 L 162.8140,110.7440 L 162.6447,110.7440 L 162.5600,110.6593 L 162.5600,110.2360 L 162.4753,110.2360 L 162.4753,110.4053 L 162.3907,110.4900 L 162.2213,110.4900 L 162.1367,110.4053 L 162.1367,110.2360 L 161.4593,110.2360 L 161.3747,110.1513 L 161.3747,109.9820 L 161.0360,109.9820 L 160.9513,109.8127 L 160.5280,109.8127 L 160.4433,109.7280 L 160.4433,109.5587 L 159.8507,109.5587 L 159.7660,109.4740 L 159.7660,109.3047 L 159.3427,109.3047 L 159.2580,109.2200 L 159.2580,109.0507 L 158.9193,109.0507 L 158.8347,108.9660 L 158.8347,108.7967 L 158.1573,108.7967 L 158.0727,108.6273 L 157.7340,108.6273 L 157.6493,108.5427 L 157.6493,108.3733 L 157.2260,108.3733 L 157.1413,108.2887 L 157.1413,108.1193 L 156.4640,108.1193 L 156.3793,108.0347 L 156.3793,107.8653 L 156.0407,107.8653 L 155.9560,107.7807 L 155.9560,107.6113 L 155.5327,107.6113 L 155.4480,107.4420 L 154.8553,107.4420 L 154.7707,107.3573 L 154.7707,107.1880 L 154.3473,107.1880 L 154.2627,107.1033 L 154.2627,106.9340 L 153.9240,106.9340 L 153.8393,106.8493 L 153.8393,106.6800 L 153.6700,106.6800 L 153.6700,106.8493 L 153.5853,106.9340 L 153.4160,106.9340 L 153.4160,107.1033 L 153.3313,107.1880 L 153.1620,107.1880 L 153.1620,107.3573 L 153.0773,107.4420 L 152.7387,107.4420 L 152.6540,107.6113 L 151.5533,107.6113 L 151.5533,107.7807 L 151.4687,107.8653 L 151.2993,107.8653 L 151.2147,107.7807 L 151.2147,107.6113 L 150.1140,107.6113 L 150.0293,107.4420 L 149.6060,107.4420 L 149.5213,107.3573 L 149.5213,107.1880 L 149.3520,107.1880 L 149.2673,107.1033 L 149.2673,106.9340 L 149.0980,106.8493 L 149.0980,106.6800 L 148.9287,106.6800 L 148.8440,106.5953 L 148.8440,106.4260 L 148.6747,106.4260 L 148.5900,106.2567 L 148.4207,106.2567 L 148.3360,106.1720 L 148.3360,106.0027 L 148.1667,106.0027 L 148.0820,105.9180 L 148.0820,105.7487 L 147.9127,105.7487 L 147.8280,105.6640 L 147.8280,105.4947 L 147.4893,105.4947 L 147.4047,105.4100 L 147.4047,105.2407 L 146.7273,105.2407 L 146.6427,105.1560 L 146.6427,104.9867 L 145.7960,104.9867 L 145.7113,104.8173 L 144.6107,104.8173 L 144.5260,104.7327 L 144.5260,104.5633 L 143.6793,104.5633 L 143.5947,104.4787 L 143.5947,104.3093 L 142.7480,104.3093 L 142.6633,104.2247 L 142.6633,104.0553 L 141.5627,104.0553 L 141.4780,103.9707 L 141.4780,103.8013 L 140.3773,103.8013 L 140.2927,103.6320 L 139.1920,103.6320 L 139.1073,103.5473 L 139.1073,103.3780 L 138.0067,103.3780 L 137.9220,103.2933 L 137.9220,103.1240 L 136.0593,103.1240 L 136.0593,103.2933 L 135.9747,103.3780 L 134.8740,103.3780 L 134.8740,103.5473 L 134.7893,103.6320 L 134.4507,103.6320 L 134.3660,103.8013 L 134.1967,103.8013 L 134.1967,103.9707 L 134.1120,104.0553 L 133.9427,104.0553 L 133.9427,104.2247 L 133.8580,104.3093 L 133.6887,104.3093 L 133.6887,104.7327 L 133.6040,104.8173 L 133.4347,104.8173 L 133.4347,105.1560 L 133.2653,105.2407 L 133.2653,107.3573 L 133.4347,107.4420 L 133.4347,109.4740 L 133.6040,109.4740 L 133.6887,109.5587 L 133.6887,109.8973 L 133.8580,109.8973 L 133.9427,109.9820 L 133.9427,111.3367 L 134.1120,111.3367 L 134.1967,111.4213 L 134.1967,112.5220 L 134.3660,112.5220 L 134.4507,112.6067 L 134.4507,114.8927 L 134.6200,114.9773 L 134.6200,115.9087 L 134.7893,115.9087 L 134.8740,115.9933 L 134.8740,117.0940 L 135.0433,117.0940 L 135.1280,117.1787 L 135.1280,119.2107 L 135.0433,119.2953 L 134.8740,119.2953 L 134.8740,120.6500 L 134.7893,120.7347 L 134.6200,120.7347 L 134.6200,121.0733 L 134.4507,121.1580 L 134.4507,121.5813 L 134.3660,121.6660 L 134.1967,121.6660 L 134.1967,121.8353 L 134.1120,121.9200 L 133.9427,121.9200 L 133.8580,122.0893 L 133.6887,122.0893 L 133.6887,122.2587 L 133.6040,122.3433 L 133.2653,122.3433 L 133.2653,122.5127 L 133.1807,122.5973 L 132.0800,122.5973 L 132.0800,122.7667 L 131.9953,122.8513 L 131.8260,122.8513 L 131.7413,122.7667 L 131.7413,122.5973 L 130.6407,122.5973 L 130.5560,122.5127 L 130.5560,122.3433 L 130.1327,122.3433 L 130.0480,122.2587 L 130.0480,122.0893 L 129.8787,122.0893 L 129.7940,121.9200 L 129.6247,121.9200 L 129.5400,121.8353 L 129.5400,121.6660 L 129.3707,121.5813 L 129.3707,121.1580 L 129.2013,121.1580 L 129.1167,121.0733 L 129.1167,120.7347 L 128.9473,120.7347 L 128.8627,120.6500 L 128.8627,119.9727 L 128.6933,119.9727 L 128.6087,119.8880 L 128.6087,118.5333 L 128.4393,118.5333 L 128.3547,118.4487 L 128.3547,117.6020 L 128.1853,117.5173 L 128.1853,116.4167 L 128.0160,116.4167 L 127.9313,116.3320 L 127.9313,114.9773 L 127.7620,114.9773 L 127.6773,114.8927 L 127.6773,113.5380 L 127.5080,113.5380 L 127.4233,113.4533 L 127.4233,111.4213 L 127.2540,111.4213 L 127.1693,111.3367 L 127.1693,106.2567 L 127.2540,106.1720 L 127.4233,106.1720 L 127.4233,104.0553 L 127.2540,104.0553 L 127.1693,103.9707 L 127.1693,103.6320 L 127.0000,103.5473 L 127.0000,100.4993 L 126.8307,100.4993 L 126.7460,100.4147 L 126.7460,98.3827 L 126.8307,98.2980 L 127.0000,98.2980 L 127.0000,96.2660 L 127.1693,96.1813 L 127.1693,92.2020 L 127.2540,92.1173 L 127.4233,92.1173 L 127.4233,89.8313 L 127.5080,89.7467 L 127.6773,89.7467 L 127.6773,88.9000 L 127.7620,88.8153 L 127.9313,88.8153 L 127.9313,88.3920 L 128.0160,88.3073 L 128.1853,88.3073 L 128.1853,86.9527 L 128.3547,86.8680 L 128.3547,86.5293 L 128.4393,86.4447 L 128.6087,86.4447 L 128.6087,86.0213 L 128.6933,85.9367 L 128.8627,85.9367 L 128.8627,85.0900 L 128.9473,85.0053 L 129.1167,85.0053 L 129.1167,84.5820 L 129.2013,84.4973 L 129.3707,84.4973 L 129.3707,84.1587 L 129.5400,84.0740 L 129.5400,83.6507 L 129.6247,83.5660 L 129.7940,83.5660 L 129.7940,83.1427 L 129.8787,83.0580 L 130.0480,83.0580 L 130.1327,82.8887 L 130.3020,82.8887 L 130.3020,82.7193 L 130.3867,82.6347 L 130.5560,82.6347 L 130.5560,82.4653 L 130.7253,82.3807 L 130.7253,82.2113 L 130.8100,82.1267 L 130.9793,82.1267 L 130.9793,81.7880 L 131.0640,81.7033 L 131.2333,81.7033 L 131.2333,81.2800 L 131.3180,81.1953 L 131.4873,81.1953 L 131.4873,80.6027 L 131.5720,80.5180 L 131.7413,80.5180 L 131.7413,80.0947 L 131.8260,80.0100 L 131.9953,80.0100 L 131.9953,79.5867 L 132.1647,79.5020 L 132.2493,79.3327 L 132.4187,79.3327 L 132.4187,78.9093 L 132.5033,78.8247 L 132.6727,78.8247 L 132.6727,78.4013 L 132.7573,78.3167 L 132.9267,78.3167 L 133.0113,78.1473 L 133.1807,78.1473 L 133.1807,77.7240 L 133.3500,77.6393 L 133.3500,77.2160 L 133.4347,77.1313 L 133.6040,77.1313 L 133.6040,76.7927 L 133.6887,76.7080 L 133.8580,76.7080 L 133.8580,76.2847 L 133.9427,76.2000 L 134.1120,76.2000 L 134.1120,75.7767 L 134.1967,75.6920 L 134.3660,75.6920 L 134.3660,75.3533 L 134.5353,75.2687 L 134.5353,74.4220 L 134.6200,74.3373 L 134.7893,74.3373 L 134.7893,73.4060 L 134.8740,73.3213 L 135.0433,73.3213 L 135.0433,72.9827 L 135.1280,72.8980 L 135.2973,72.8980 L 135.2973,72.4747 L 135.3820,72.3900 L 135.5513,72.3900 L 135.5513,72.0513 L 135.7207,71.9667 L 135.7207,71.5433 L 135.8053,71.4587 L 135.9747,71.4587 L 135.9747,71.0353 L 136.0593,70.9507 L 136.2287,70.9507 L 136.2287,70.6120 L 136.3133,70.5273 L 136.4827,70.5273 L 136.4827,68.4953 L 136.3133,68.4953 L 136.2287,68.4107 L 136.2287,67.9873 L 136.0593,67.9873 L 135.9747,67.9027 L 135.9747,67.4793 L 135.8053,67.4793 L 135.7207,67.3947 L 135.7207,65.6167 L 135.8053,65.5320 L 135.9747,65.5320 L 135.9747,65.1087 L 136.0593,65.0240 L 136.2287,65.0240 L 136.2287,64.6853 L 136.3133,64.6007 L 136.4827,64.6007 L 136.4827,64.4313 L 136.5673,64.3467 L 136.7367,64.3467 L 136.7367,64.1773 L 136.9060,64.0927 L 136.9060,63.9233 L 136.9907,63.8387 L 137.1600,63.8387 L 137.1600,63.6693 L 137.2447,63.5847 L 137.4140,63.5847 L 137.4987,63.4153 L 137.6680,63.4153 L 137.6680,63.2460 L 137.7527,63.1613 L 137.9220,63.1613 L 137.9220,62.7380 L 138.0913,62.6533 L 138.0913,62.3147 L 138.1760,62.2300 L 138.3453,62.2300 L 138.3453,60.6213 L 138.1760,60.6213 L 138.0913,60.5367 L 138.0913,60.1133 L 137.9220,60.0287 L 137.9220,59.6900 L 137.7527,59.6900 L 137.6680,59.6053 L 137.6680,59.1820 L 137.4987,59.1820 L 137.4140,59.0973 L 137.4140,57.4887 L 137.4987,57.4040 L 137.6680,57.4040 L 137.6680,57.0653 L 137.7527,56.9807 L 137.9220,56.9807 L 137.9220,56.5573 L 138.0913,56.4727 L 138.0913,56.3033 L 138.1760,56.2187 L 138.3453,56.2187 L 138.4300,56.0493 L 138.5993,56.0493 L 138.5993,55.8800 L 138.6840,55.7953 L 138.8533,55.7953 L 138.8533,55.6260 L 138.9380,55.5413 L 139.2767,55.5413 L 139.2767,55.3720 L 139.3613,55.2873 L 140.5467,55.2873 L 140.5467,55.1180 L 140.7160,55.0333 L 140.8007,55.1180 L 140.8007,55.2873 L 141.9013,55.2873 L 141.9860,55.3720 L 141.9860,55.5413 L 142.4093,55.5413 L 142.4940,55.6260 L 142.4940,55.7953 L 142.6633,55.7953 L 142.7480,55.8800 L 142.7480,56.0493 L 142.9173,56.0493 L 143.0020,56.2187 L 143.1713,56.3033 L 143.1713,56.7267 L 143.3407,56.7267 L 143.4253,56.8113 L 143.4253,57.2347 L 143.5947,57.2347 L 143.6793,57.3193 L 143.6793,59.8593 L 143.8487,59.8593 L 143.9333,59.9440 L 143.9333,60.2827 L 144.1027,60.2827 L 144.1873,60.3673 L 144.1873,60.7907 L 144.3567,60.8753 L 144.3567,61.2140 L 144.5260,61.2140 L 144.6107,61.2987 L 144.6107,61.7220 L 144.7800,61.7220 L 144.8647,61.8067 L 144.8647,62.2300 L 145.0340,62.2300 L 145.1187,62.3147 L 145.1187,63.8387 L 145.2880,63.8387 L 145.3727,63.9233 L 145.3727,64.3467 L 145.5420,64.4313 L 145.5420,64.7700 L 145.7113,64.7700 L 145.7960,64.8547 L 145.7960,65.0240 L 145.9653,65.0240 L 146.0500,65.1087 L 146.0500,65.2780 L 146.2193,65.2780 L 146.3040,65.3627 L 146.3040,65.5320 L 146.6427,65.5320 L 146.7273,65.6167 L 146.7273,65.7860 L 147.6587,65.7860 L 147.7433,65.9553 L 148.0820,65.9553 L 148.1667,66.0400 L 148.1667,66.2093 L 148.3360,66.2093 L 148.4207,66.2940 L 148.4207,66.4633 L 148.5900,66.4633 L 148.6747,66.5480 L 148.6747,66.7173 L 148.8440,66.7173 L 148.9287,66.8020 L 148.9287,66.9713 L 149.0980,66.9713 L 149.1827,67.0560 L 149.1827,67.2253 L 149.3520,67.3100 L 149.3520,67.6487 L 149.5213,67.6487 L 149.6060,67.7333 L 149.6060,67.9027 L 149.7753,67.9027 L 149.8600,67.9873 L 149.8600,68.4107 L 150.0293,68.4107 L 150.1140,68.5800 L 150.2833,68.5800 L 150.3680,68.6647 L 150.3680,68.8340 L 150.5373,68.9187 L 150.5373,69.3420 L 150.7067,69.3420 L 150.7913,69.4267 L 150.7913,69.5960 L 150.9607,69.5960 L 151.0453,69.7653 L 151.2147,69.7653 L 151.2993,69.8500 L 151.2993,70.2733 L 151.4687,70.2733 L 151.5533,70.3580 L 151.5533,70.5273 L 151.7227,70.6120 L 151.7227,70.7813 L 151.8920,70.7813 L 151.9767,70.8660 L 151.9767,71.2047 L 152.1460,71.2047 L 152.2307,71.2893 L 152.2307,71.4587 L 152.4000,71.4587 L 152.4847,71.5433 L 152.4847,71.7127 L 152.6540,71.7127 L 152.7387,71.7973 L 152.7387,71.9667 L 152.8233,71.9667 L 152.9080,72.1360 L 153.0773,72.1360 L 153.1620,72.2207 L 153.1620,72.3900 L 153.3313,72.3900 L 153.4160,72.4747 L 153.4160,72.6440 L 153.5853,72.6440 L 153.6700,72.7287 L 153.6700,72.8980 L 153.8393,72.8980 L 153.9240,72.9827 L 153.9240,73.3213 L 154.0933,73.4060 L 154.0933,73.8293 L 154.2627,73.8293 L 154.3473,73.9140 L 154.3473,74.0833 L 154.5167,74.0833 L 154.6013,74.1680 L 154.6013,74.3373 L 154.7707,74.3373 L 154.8553,74.5067 L 155.0247,74.5067 L 155.1093,74.5913 L 155.1093,74.7607 L 155.2787,74.8453 L 155.2787,75.0147 L 155.4480,75.0147 L 155.5327,75.0993 L 155.5327,75.2687 L 155.7020,75.2687 L 155.7867,75.3533 L 155.7867,75.5227 L 155.9560,75.5227 L 156.0407,75.6920 L 156.2100,75.6920 L 156.2947,75.7767 L 156.2947,75.9460 L 156.4640,76.0307 L 156.4640,76.2000 L 156.6333,76.2000 L 156.7180,76.2847 L 156.7180,76.4540 L 156.8873,76.4540 L 156.9720,76.5387 L 156.9720,76.9620 L 157.1413,76.9620 L 157.2260,77.0467 L 157.2260,77.3853 L 157.3953,77.3853 L 157.4800,77.4700 L 157.4800,79.3327 L 157.3953,79.4173 L 157.2260,79.4173 L 157.2260,79.7560 L 157.1413,79.8407 L 156.9720,79.8407 L 156.9720,80.2640 L 156.8873,80.3487 L 156.7180,80.3487 L 156.7180,80.5180 L 156.6333,80.6027 L 156.4640,80.6027 L 156.4640,80.6873 L 156.2947,80.7720 L 156.2947,80.9413 L 156.2100,81.0260 L 156.0407,81.0260 L 156.0407,81.4493 L 155.9560,81.5340 L 155.7867,81.5340 L 155.7867,81.7033 L 155.7020,81.7880 L 155.5327,81.7880 L 155.4480,81.9573 L 155.2787,81.9573 L 155.2787,82.1267 L 155.1093,82.2113 L 155.1093,82.3807 L 155.0247,82.4653 L 154.6013,82.4653 L 154.6013,82.6347 L 154.5167,82.7193 L 154.0933,82.7193 L 154.0933,82.8887 L 153.9240,82.9733 L 153.8393,83.1427 L 153.4160,83.1427 L 153.4160,83.3120 L 153.3313,83.3967 L 152.9080,83.3967 L 152.9080,83.5660 L 152.7387,83.6507 L 152.7387,83.8200 L 152.6540,83.9047 L 152.4847,83.9047 L 152.4847,84.0740 L 152.4000,84.1587 L 152.2307,84.1587 L 152.1460,84.3280 L 151.9767,84.3280 L 151.9767,84.4973 L 151.8920,84.5820 L 151.7227,84.5820 L 151.7227,84.7513 L 151.5533,84.8360 L 151.5533,85.0053 L 151.4687,85.0900 L 151.2993,85.0900 L 151.2993,85.4287 L 151.2147,85.5133 L 151.0453,85.5133 L 151.0453,85.9367 L 150.9607,86.0213 L 150.7913,86.0213 L 150.7913,86.4447 L 150.7067,86.5293 L 150.5373,86.5293 L 150.5373,86.8680 L 150.3680,86.9527 L 150.3680,90.6780 L 150.5373,90.7627 L 150.5373,91.1860 L 150.7067,91.1860 L 150.7913,91.2707 L 150.7913,91.6093 L 150.9607,91.6093 L 151.0453,91.6940 L 151.0453,91.8633 L 151.2147,91.8633 L 151.2993,91.9480 L 151.2993,92.1173 L 151.4687,92.1173 L 151.5533,92.2020 L 151.5533,92.3713 L 151.7227,92.4560 L 151.7227,92.7947 L 151.8920,92.7947 L 151.9767,92.8793 L 151.9767,93.3027 L 152.1460,93.3027 L 152.2307,93.3873 L 152.2307,93.8107 L 152.4000,93.8107 L 152.4847,93.9800 L 152.6540,93.9800 L 152.7387,94.0647 L 152.7387,94.4880 L 152.9080,94.5727 L 152.9080,94.7420 L 153.0773,94.7420 L 153.1620,94.8267 L 153.1620,95.1653 L 153.3313,95.1653 L 153.4160,95.2500 L 153.4160,95.6733 L 153.5853,95.6733 L 153.6700,95.7580 L 153.6700,95.9273 L 153.8393,95.9273 L 153.9240,96.0120 L 153.9240,96.1813 L 154.0933,96.2660 L 154.0933,96.6047 L 154.2627,96.6047 L 154.3473,96.6893 L 154.3473,97.1127 L 154.5167,97.1127 L 154.6013,97.1973 L 154.6013,97.7900 L 154.7707,97.7900 L 154.8553,97.8747 L 154.8553,98.8060 L 155.0247,98.8060 L 155.1093,98.8907 L 155.1093,103.9707 L 155.7020,103.9707 L 155.7867,104.0553 L 155.7867,104.2247 L 156.2100,104.2247 L 156.2947,104.3093 L 156.2947,104.4787 L 156.6333,104.4787 L 156.7180,104.5633 L 156.7180,104.7327 L 157.3953,104.7327 L 157.4800,104.9020 L 157.8187,104.9020 L 157.9033,104.9867 L 157.9033,105.1560 L 158.3267,105.1560 L 158.4113,105.2407 L 158.4113,105.4100 L 159.0040,105.4100 L 159.0887,105.4947 L 159.0887,105.6640 L 159.5120,105.6640 L 159.5967,105.7487 L 159.5967,105.9180 L 160.0200,105.9180 L 160.1047,106.0027 L 160.1047,106.1720 L 160.6973,106.1720 L 160.7820,106.3413 L 161.2053,106.3413 L 161.2900,106.4260 L 161.2900,106.5953 L 161.6287,106.5953 L 161.7133,106.6800 L 161.7133,106.8493 L 162.3907,106.8493 L 162.4753,106.9340 L 162.4753,107.1033 L 162.8140,107.1033 L 162.8987,107.1880 L 162.8987,107.3573 L 163.3220,107.3573 L 163.4067,107.5267 L 163.5760,107.5267 L 163.5760,107.4420 L 163.7453,107.3573 L 163.7453,106.9340 L 163.8300,106.8493 L 163.9993,106.8493 L 163.9993,106.6800 L 164.0840,106.5953 L 164.2533,106.5953 L 164.2533,106.4260 L 164.3380,106.3413 L 164.5073,106.3413 L 164.5920,106.1720 L 164.9307,106.1720 L 164.9307,106.0027 L 165.0153,105.9180 L 166.2007,105.9180 L 166.2007,105.7487 L 166.2853,105.6640 L 167.3860,105.6640 L 167.3860,105.4947 L 167.4707,105.4100 L 167.8093,105.4100 L 167.8940,105.4947 L 167.8940,105.6640 L 168.9947,105.6640 L 169.0793,105.7487 L 169.0793,105.9180 L 170.1800,105.9180 L 170.2647,106.0027 L 170.2647,106.1720 L 170.9420,106.1720 L 170.9420,106.0027 L 171.0267,105.9180 L 172.1273,105.9180 L 172.1273,105.7487 L 172.2120,105.6640 L 172.5507,105.6640 L 172.5507,105.4947 L 172.6353,105.4100 L 173.0587,105.4100 L 173.0587,105.2407 L 173.1433,105.1560 L 173.4820,105.1560 L 173.4820,104.9867 L 173.5667,104.9020 L 173.7360,104.9020 L 173.8207,104.7327 L 173.9900,104.7327 L 173.9900,104.5633 L 174.0747,104.4787 L 174.2440,104.4787 L 174.2440,104.0553 L 174.3287,103.9707 L 174.4980,103.9707 L 174.4980,103.6320 L 174.5827,103.5473 L 174.7520,103.5473 L 174.7520,103.1240 L 174.9213,103.0393 L 174.9213,102.6160 L 175.0060,102.5313 L 175.1753,102.5313 L 175.1753,102.1927 L 175.2600,102.1080 L 175.4293,102.1080 L 175.4293,101.6847 L 175.5140,101.6000 L 175.6833,101.6000 L 175.6833,100.4993 L 175.7680,100.4147 L 175.9373,100.4147 L 175.9373,97.7053 L 176.1067,97.6207 L 176.1067,97.1973 L 176.1913,97.1127 L 176.3607,97.1127 L 176.3607,96.6893 L 176.4453,96.6047 L 176.6147,96.6047 L 176.6993,96.4353 L 176.8687,96.4353 L 176.8687,96.0120 L 176.9533,95.9273 L 177.1227,95.9273 L 177.1227,95.5040 L 177.2920,95.4193 L 177.2920,93.8953 L 177.1227,93.8107 L 177.1227,93.3873 L 176.9533,93.3873 L 176.8687,93.3027 L 176.8687,92.8793 L 176.6993,92.8793 L 176.6147,92.7100 L 176.4453,92.7100 L 176.3607,92.6253 L 176.3607,92.4560 L 176.1913,92.4560 L 176.1067,92.3713 L 176.1067,92.2020 L 175.7680,92.2020 L 175.6833,92.1173 L 175.6833,91.9480 L 174.5827,91.9480 L 174.4980,91.8633 L 174.4980,91.6940 L 174.0747,91.6940 L 173.9900,91.5247 L 173.8207,91.5247 L 173.7360,91.4400 L 173.7360,91.2707 L 173.5667,91.2707 L 173.4820,91.1860 L 173.4820,91.0167 L 173.3127,90.9320 L 173.3127,90.7627 L 173.1433,90.7627 L 173.0587,90.6780 L 173.0587,90.3393 L 172.8893,90.3393 L 172.8047,90.2547 L 172.8047,89.8313 L 172.6353,89.8313 L 172.5507,89.7467 L 172.5507,87.9687 L 172.6353,87.8840 L 172.8047,87.8840 L 172.8047,87.4607 L 172.8893,87.3760 L 173.0587,87.3760 L 173.0587,86.9527 L 173.1433,86.8680 L 173.3127,86.8680 L 173.3127,86.7833 L 173.4820,86.6987 L 173.4820,86.5293 L 173.5667,86.4447 L 173.7360,86.4447 L 173.7360,86.2753 L 173.8207,86.1907 L 174.2440,86.1907 L 174.2440,86.0213 L 174.3287,85.9367 L 175.4293,85.9367 L 175.4293,85.7673 L 175.5140,85.6827 L 175.9373,85.6827 L 175.9373,85.5133 L 176.1067,85.4287 L 176.1913,85.2593 L 176.3607,85.2593 L 176.3607,85.0900 L 176.4453,85.0053 L 176.6147,85.0053 L 176.6147,84.5820 L 176.6993,84.4973 L 176.8687,84.4973 L 176.8687,84.1587 L 176.9533,84.0740 L 177.1227,84.0740 L 177.1227,83.6507 L 177.2920,83.5660 L 177.2920,83.1427 L 177.3767,83.0580 L 177.5460,83.0580 L 177.5460,82.7193 L 177.6307,82.6347 L 177.8000,82.6347 L 177.8000,82.4653 L 177.8847,82.3807 L 178.0540,82.3807 L 178.0540,82.2113 L 178.1387,82.1267 L 178.3080,82.1267 L 178.3080,81.9573 L 178.4773,81.8727 L 178.5620,81.7033 L 178.7313,81.7033 L 178.7313,81.5340 L 178.8160,81.4493 L 178.9853,81.4493 L 178.9853,81.0260 L 179.0700,80.9413 L 179.2393,80.9413 L 179.2393,80.6027 L 179.3240,80.5180 L 179.4933,80.5180 L 179.4933,80.0947 L 179.6627,80.0100 L 179.6627,79.5867 L 179.7473,79.5020 L 179.9167,79.5020 L 179.9167,77.7240 L 179.7473,77.7240 L 179.6627,77.6393 L 179.6627,77.2160 L 179.4933,77.1313 L 179.4933,76.7927 L 179.3240,76.7927 L 179.2393,76.7080 L 179.2393,76.2847 L 179.0700,76.2847 L 178.9853,76.2000 L 178.9853,76.0307 L 178.8160,76.0307 L 178.7313,75.9460 L 178.7313,75.7767 L 178.5620,75.7767 L 178.4773,75.6073 L 178.1387,75.6073 L 178.0540,75.5227 L 178.0540,75.3533 L 176.9533,75.3533 L 176.8687,75.2687 L 176.8687,75.0993 L 176.4453,75.0993 L 176.4453,75.2687 L 176.3607,75.3533 L 176.0220,75.3533 L 175.9373,75.2687 L 175.9373,75.0993 L 174.8367,75.0993 L 174.7520,75.0147 L 174.7520,74.8453 L 174.3287,74.8453 L 174.2440,74.7607 L 174.2440,74.5913 L 174.0747,74.5913 L 173.9900,74.4220 L 173.8207,74.4220 L 173.7360,74.3373 L 173.7360,74.1680 L 173.5667,74.1680 L 173.4820,74.0833 L 173.4820,73.6600 L 173.3127,73.5753 L 173.3127,73.2367 L 173.1433,73.2367 L 173.0587,73.1520 L 173.0587,72.9827 L 172.8893,72.9827 L 172.8047,72.8980 L 172.8047,72.7287 L 172.6353,72.7287 L 172.5507,72.6440 L 172.5507,72.4747 L 172.3813,72.4747 L 172.2967,72.3900 L 172.2967,72.2207 L 172.1273,72.1360 L 172.1273,71.7973 L 171.9580,71.7973 L 171.8733,71.7127 L 171.8733,71.2893 L 171.7040,71.2893 L 171.6193,71.2047 L 171.6193,68.6647 L 171.7040,68.5800 L 171.8733,68.5800 L 171.8733,68.2413 L 171.9580,68.1567 L 172.1273,68.1567 L 172.1273,67.7333 L 172.2967,67.6487 L 172.2967,67.4793 L 172.3813,67.3947 L 172.5507,67.3947 L 172.6353,67.2253 L 172.8047,67.2253 L 172.8047,67.0560 L 172.8893,66.9713 L 173.0587,66.9713 L 173.0587,66.8020 L 173.1433,66.7173 L 173.3127,66.7173 L 173.3127,66.2940 L 173.4820,66.2093 L 173.4820,65.8707 L 173.5667,65.7860 L 173.7360,65.7860 L 173.7360,64.1773 L 173.5667,64.1773 L 173.4820,64.0927 L 173.4820,63.6693 L 173.3127,63.5847 L 173.3127,63.2460 L 173.1433,63.2460 L 173.0587,63.1613 L 173.0587,62.9920 L 172.8893,62.9920 L 172.8047,62.9073 L 172.8047,62.7380 L 172.6353,62.7380 L 172.5507,62.6533 L 172.5507,62.4840 L 172.3813,62.4840 L 172.2967,62.3993 L 172.2967,62.0607 L 172.1273,61.9760 L 172.1273,61.5527 L 171.9580,61.5527 L 171.8733,61.4680 L 171.8733,59.4360 L 171.9580,59.3513 L 172.1273,59.3513 L 172.1273,52.7473 L 171.9580,52.7473 L 171.8733,52.6627 L 171.8733,52.0700 L 171.7040,52.0700 L 171.6193,51.9853 L 171.6193,51.5620 L 171.4500,51.5620 L 171.3653,51.4773 L 171.3653,51.1387 L 171.1960,51.1387 L 171.1113,51.0540 L 171.1113,49.1913 L 170.9420,49.1067 L 170.9420,48.7680 L 170.7727,48.7680 L 170.6880,48.6833 L 170.6880,46.5667 L 170.7727,46.4820 L 170.9420,46.4820 L 170.9420,46.1433 L 171.1113,46.0587 L 171.1113,45.6353 L 171.1960,45.5507 L 171.3653,45.5507 L 171.3653,45.3813 L 171.4500,45.2967 L 171.6193,45.2967 L 171.6193,44.9580 L 171.7040,44.8733 L 171.8733,44.8733 L 171.8733,44.4500 L 171.9580,44.3653 L 172.1273,44.3653 L 172.1273,42.5873 L 171.9580,42.5873 L 171.8733,42.5027 L 171.8733,42.0793 L 171.7040,42.0793 L 171.6193,41.9947 L 171.6193,41.6560 L 171.4500,41.6560 L 171.3653,41.5713 L 171.3653,41.4020 L 171.1960,41.4020 L 171.1113,41.3173 L 171.1113,41.1480 L 170.9420,41.0633 L 170.9420,40.8940 L 170.5187,40.8940 L 170.4340,40.8093 L 170.4340,40.6400 L 170.0107,40.6400 L 169.9260,40.4707 L 169.7567,40.3860 L 169.7567,40.2167 L 169.5873,40.2167 L 169.5027,40.1320 L 169.5027,39.9627 L 169.0793,39.9627 L 168.9947,39.8780 L 168.9947,39.7087 L 167.8940,39.7087 L 167.8093,39.6240 L 167.8093,39.4547 L 167.4707,39.4547 L 167.4707,39.6240 L 167.3860,39.7087 L 166.2853,39.7087 L 166.2853,39.8780 L 166.2007,39.9627 L 165.7773,39.9627 L 165.7773,40.1320 L 165.6927,40.2167 L 165.5233,40.2167 L 165.5233,40.3860 L 165.4387,40.4707 L 165.2693,40.4707 L 165.1847,40.6400 L 165.0153,40.6400 L 165.0153,40.8093 L 164.9307,40.8940 L 164.5920,40.8940 L 164.5920,41.0633 L 164.5073,41.1480 L 163.4067,41.1480 L 163.4067,41.3173 L 163.3220,41.4020 L 162.2213,41.4020 L 162.2213,41.5713 L 162.1367,41.6560 L 161.7133,41.6560 L 161.6287,41.8253 L 161.2900,41.8253 L 161.2900,41.9947 L 161.2053,42.0793 L 160.7820,42.0793 L 160.7820,42.2487 L 160.6973,42.3333 L 159.8507,42.3333 L 159.8507,42.5027 L 159.7660,42.5873 L 158.9193,42.5873 L 158.9193,42.7567 L 158.8347,42.8413 L 158.4113,42.8413 L 158.3267,43.0107 L 158.1573,43.0107 L 158.1573,43.1800 L 158.0727,43.2647 L 157.7340,43.2647 L 157.7340,43.4340 L 157.6493,43.5187 L 156.4640,43.5187 L 156.4640,43.6880 L 156.3793,43.7727 L 156.2100,43.6880 L 156.2100,43.5187 L 155.1093,43.5187 L 155.0247,43.4340 L 155.0247,43.2647 L 154.6013,43.2647 L 154.5167,43.1800 L 154.5167,43.0107 L 154.3473,43.0107 L 154.2627,42.8413 L 154.0933,42.8413 L 154.0087,42.7567 L 154.0087,42.5873 L 153.8393,42.5027 L 153.8393,42.0793 L 153.6700,42.0793 L 153.5853,41.9947 L 153.5853,41.8253 L 153.4160,41.8253 L 153.3313,41.6560 L 153.1620,41.6560 L 153.0773,41.5713 L 153.0773,41.4020 L 152.9080,41.4020 L 152.8233,41.3173 L 152.8233,41.1480 L 152.6540,41.0633 L 152.6540,40.8940 L 152.4847,40.8940 L 152.4000,40.8093 L 152.4000,40.6400 L 152.2307,40.6400 L 152.1460,40.5553 L 152.1460,40.2167 L 151.9767,40.2167 L 151.8920,40.1320 L 151.8920,39.9627 L 151.7227,39.9627 L 151.6380,39.8780 L 151.6380,39.7087 L 151.4687,39.6240 L 151.4687,39.4547 L 151.0453,39.4547 L 150.9607,39.2853 L 150.5373,39.2853 L 150.4527,39.2007 L 150.4527,39.0313 L 149.3520,39.0313 L 149.2673,38.9467 L 149.2673,38.7773 L 148.9287,38.7773 L 148.8440,38.6927 L 148.8440,38.5233 L 148.6747,38.5233 L 148.5900,38.4387 L 148.5900,38.2693 L 148.4207,38.2693 L 148.3360,38.1847 L 148.3360,38.0153 L 148.1667,38.0153 L 148.0820,37.9307 L 148.0820,37.5920 L 147.9127,37.5920 L 147.8280,37.5073 L 147.8280,37.0840 L 147.6587,36.9993 L 147.6587,35.4753 L 147.8280,35.3907 L 147.8280,33.5280 L 147.6587,33.4433 L 147.6587,33.1047 L 147.4893,33.1047 L 147.4047,33.0200 L 147.4047,32.5967 L 147.2353,32.5967 L 147.1507,32.5120 L 147.1507,30.9033 L 147.2353,30.8187 L 147.4047,30.8187 L 147.4047,30.4800 L 147.4893,30.3953 L 147.6587,30.3953 L 147.6587,29.9720 L 147.8280,29.8873 L 147.8280,29.7180 L 147.9127,29.6333 L 148.0820,29.6333 L 148.1667,29.4640 L 148.3360,29.4640 L 148.3360,29.2947 L 148.4207,29.2100 L 148.5900,29.2100 L 148.5900,29.0407 L 148.6747,28.9560 L 149.0980,28.9560 L 149.0980,28.7867 L 149.2673,28.7020 L 149.2673,28.5327 L 149.3520,28.4480 L 149.5213,28.4480 L 149.5213,28.2787 L 149.6060,28.1940 L 150.0293,28.1940 L 150.1140,28.0247 L 150.4527,28.0247 L 150.4527,27.8553 L 150.5373,27.7707 L 150.9607,27.7707 L 150.9607,27.6013 L 151.0453,27.5167 L 151.2147,27.5167 L 151.2147,27.3473 L 151.2993,27.2627 L 151.6380,27.2627 L 151.6380,27.0933 L 151.7227,27.0087 L 152.1460,27.0087 L 152.2307,26.8393 L 152.4000,26.8393 L 152.4000,26.6700 L 152.4847,26.5853 L 152.6540,26.5853 L 152.6540,26.4160 L 152.8233,26.3313 L 152.8233,26.1620 L 152.9080,26.0773 L 153.3313,26.0773 L 153.3313,25.9080 L 153.4160,25.8233 L 153.5853,25.8233 L 153.6700,25.6540 L 153.8393,25.6540 L 153.8393,25.4847 L 154.0087,25.4000 L 154.0087,25.2307 L 154.0933,25.1460 L 154.2627,25.1460 L 154.2627,24.9767 L 154.3473,24.8920 L 154.7707,24.8920 L 154.7707,24.7227 L 154.8553,24.6380 L 155.4480,24.6380 L 155.5327,24.4687 L 156.3793,24.4687 L 156.3793,24.2993 L 156.4640,24.2147 L 156.8873,24.2147 L 156.8873,24.0453 L 156.9720,23.9607 L 157.6493,23.9607 L 157.6493,23.7913 L 157.7340,23.7067 L 158.3267,23.7067 L 158.3267,23.5373 L 158.4113,23.4527 L 158.8347,23.4527 L 158.9193,23.2833 L 159.2580,23.2833 L 159.2580,23.1140 L 159.3427,23.0293 L 160.4433,23.0293 L 160.4433,22.8600 L 160.5280,22.7753 L 163.5760,22.7753 L 163.6607,22.8600 L 163.6607,23.0293 L 164.7613,23.0293 L 164.8460,23.1140 L 164.8460,23.2833 L 165.9467,23.2833 L 166.0313,23.4527 L 166.3700,23.4527 L 166.4547,23.5373 L 166.4547,23.7067 L 166.6240,23.7067 L 166.7087,23.7913 L 166.7087,23.9607 L 166.8780,23.9607 L 166.9627,24.0453 L 166.9627,24.2147 L 167.1320,24.2147 L 167.2167,24.2993 L 167.2167,24.4687 L 167.3860,24.4687 L 167.4707,24.5533 L 167.4707,24.8920 L 167.6400,24.9767 L 167.6400,25.4000 L 167.8093,25.4000 L 167.8940,25.4847 L 167.8940,27.7707 L 168.0633,27.7707 L 168.1480,27.8553 L 168.1480,28.1940 L 168.3173,28.1940 L 168.4020,28.2787 L 168.4020,28.7020 L 168.5713,28.7020 L 168.6560,28.7867 L 168.6560,28.9560 L 168.8253,29.0407 L 168.8253,29.2100 L 168.9947,29.2100 L 169.0793,29.2947 L 169.0793,29.4640 L 169.5027,29.4640 L 169.5873,29.6333 L 170.4340,29.6333 L 170.5187,29.7180 L 170.5187,29.8873 L 170.9420,29.8873 L 171.0267,29.9720 L 171.0267,30.1413 L 171.1960,30.2260 L 171.1960,30.3953 L 171.6193,30.3953 L 171.7040,30.4800 L 171.7040,30.6493 L 172.5507,30.6493 L 172.6353,30.8187 L 173.0587,30.8187 L 173.1433,30.9033 L 173.1433,31.0727 L 173.3127,31.0727 L 173.3973,31.1573 L 173.3973,31.3267 L 173.5667,31.4113 L 173.5667,31.5807 L 173.7360,31.5807 L 173.8207,31.6653 L 173.8207,32.0040 L 173.9900,32.0040 L 174.0747,32.0887 L 174.0747,32.5120 L 174.2440,32.5120 L 174.3287,32.5967 L 174.3287,35.5600 L 174.4980,35.5600 L 174.5827,35.6447 L 174.5827,36.0680 L 174.7520,36.0680 L 174.8367,36.1527 L 174.8367,36.5760 L 175.0060,36.6607 L 175.0060,37.2533 L 175.1753,37.2533 L 175.2600,37.3380 L 175.2600,37.7613 L 175.4293,37.7613 L 175.5140,37.8460 L 175.5140,38.1847 L 175.6833,38.1847 L 175.7680,38.2693 L 175.7680,38.4387 L 175.9373,38.4387 L 176.0220,38.5233 L 176.0220,38.6927 L 176.1913,38.7773 L 176.1913,38.9467 L 176.6147,38.9467 L 176.6993,39.0313 L 176.6993,39.2007 L 177.8000,39.2007 L 177.8847,39.3700 L 178.0540,39.3700 L 178.1387,39.2007 L 179.2393,39.2007 L 179.2393,39.0313 L 179.3240,38.9467 L 179.6627,38.9467 L 179.6627,38.7773 L 179.7473,38.6927 L 179.9167,38.6927 L 179.9167,38.5233 L 180.0013,38.4387 L 180.4247,38.4387 L 180.4247,38.2693 L 180.5093,38.1847 L 181.6100,38.1847 L 181.6100,38.0153 L 181.6947,37.9307 L 182.7953,37.9307 L 182.8800,37.7613 L 183.3033,37.7613 L 183.3033,37.5920 L 183.4727,37.5073 L 183.4727,37.3380 L 183.5573,37.2533 L 183.7267,37.2533 L 183.7267,37.0840 L 183.8113,36.9993 L 183.9807,36.9993 L 183.9807,36.6607 L 184.0653,36.5760 L 184.2347,36.5760 L 184.2347,36.1527 L 184.3193,36.0680 L 184.4887,36.0680 L 184.4887,34.4593 L 184.3193,34.4593 L 184.2347,34.3747 L 184.2347,34.0360 L 184.0653,34.0360 L 183.9807,33.9513 L 183.9807,33.5280 L 183.8113,33.5280 L 183.7267,33.4433 L 183.7267,31.4113 L 183.8113,31.3267 L 183.9807,31.3267 L 183.9807,30.9033 L 184.0653,30.8187 L 184.2347,30.8187 L 184.2347,30.4800 L 184.3193,30.3953 L 184.4887,30.3953 L 184.4887,30.2260 L 184.6580,30.1413 L 184.6580,29.7180 L 184.7427,29.6333 L 184.9120,29.6333 L 184.9120,29.2947 L 184.9967,29.2100 L 185.1660,29.2100 L 185.1660,25.9080 L 185.2507,25.8233 L 185.4200,25.8233 L 185.4200,25.4847 L 185.5047,25.4000 L 185.6740,25.4000 L 185.6740,24.9767 L 185.8433,24.8920 L 185.8433,24.7227 L 185.9280,24.6380 L 186.0973,24.6380 L 186.1820,24.4687 L 186.3513,24.4687 L 186.3513,24.2993 L 186.4360,24.2147 L 186.8593,24.2147 L 186.8593,24.0453 L 187.0287,23.9607 L 187.0287,23.7913 L 187.1133,23.7067 L 187.2827,23.7067 L 187.2827,23.5373 L 187.3673,23.4527 L 187.5367,23.4527 L 187.6213,23.2833 L 187.7907,23.2833 L 187.7907,23.1140 L 187.8753,23.0293 L 188.2140,23.0293 L 188.2140,22.8600 L 188.2987,22.7753 L 189.3993,22.7753 L 189.3993,22.6060 L 189.4840,22.5213 L 189.9073,22.5213 L 189.9920,22.6060 L 189.9920,22.7753 L 191.0927,22.7753 L 191.1773,22.8600 L 191.1773,23.0293 L 192.2780,23.0293 L 192.3627,23.1140 L 192.3627,23.2833 L 192.7860,23.2833 L 192.8707,23.4527 L 193.2093,23.4527 L 193.2940,23.5373 L 193.2940,23.7067 L 193.4633,23.7067 L 193.5480,23.7913 L 193.5480,23.9607 L 193.7173,23.9607 L 193.8020,24.0453 L 193.8020,24.2147 L 193.9713,24.2147 L 194.0560,24.2993 L 194.0560,24.6380 L 194.2253,24.6380 L 194.3100,24.7227 L 194.3100,25.1460 L 194.4793,25.2307 L 194.4793,25.4000 L 194.6487,25.4000 L 194.7333,25.4847 L 194.7333,25.6540 L 194.9027,25.6540 L 194.9873,25.8233 L 195.4107,25.8233 L 195.4953,25.9080 L 195.4953,26.0773 L 196.5960,26.0773 L 196.6807,26.1620 L 196.6807,26.3313 L 197.9507,26.3313 L 197.9507,26.1620 L 198.0353,26.0773 L 199.1360,26.0773 L 199.1360,25.9080 L 199.2207,25.8233 L 200.4060,25.8233 L 200.4907,25.6540 L 200.8293,25.6540 L 200.9140,25.8233 L 202.0147,25.8233 L 202.0993,25.9080 L 202.0993,26.0773 L 202.5227,26.0773 L 202.5227,25.9080 L 202.6073,25.8233 L 203.7080,25.8233 L 203.7927,25.6540 L 204.1313,25.6540 L 204.1313,25.4847 L 204.2160,25.4000 L 204.3853,25.4000 L 204.3853,25.2307 L 204.4700,25.1460 L 204.6393,25.1460 L 204.6393,24.9767 L 204.7240,24.8920 L 204.8933,24.8920 L 204.8933,24.5533 L 204.9780,24.4687 L 205.1473,24.4687 L 205.1473,24.0453 L 205.3167,23.9607 L 205.3167,22.1827 L 205.1473,22.0980 L 205.1473,21.6747 L 204.9780,21.6747 L 204.8933,21.5900 L 204.8933,21.1667 L 204.7240,21.1667 L 204.6393,21.0820 L 204.6393,20.7433 L 204.4700,20.7433 L 204.3853,20.6587 L 204.3853,18.7960 L 204.4700,18.7113 L 204.6393,18.7113 L 204.6393,18.3727 L 204.7240,18.2880 L 204.8933,18.2880 L 204.8933,17.8647 L 204.9780,17.7800 L 205.1473,17.7800 L 205.1473,17.6107 L 205.3167,17.5260 L 205.3167,17.3567 L 205.4013,17.2720 L 205.5707,17.2720 L 205.6553,17.1027 L 205.8247,17.1027 L 205.8247,16.9333 L 205.9093,16.8487 L 206.3327,16.8487 L 206.3327,16.6793 L 206.5020,16.5947 L 206.5020,16.4253 L 206.5867,16.3407 L 206.7560,16.3407 L 206.7560,16.1713 L 206.8407,16.0867 L 207.0100,16.0867 L 207.0947,15.9173 L 207.5180,15.9173 L 207.5180,15.7480 L 207.6027,15.6633 L 208.7033,15.6633 L 208.7033,15.4940 L 208.7880,15.4093 L 209.1267,15.4093 L 209.2113,15.4940 L 209.2113,15.6633 L 210.1427,15.6633 L 210.1427,15.4940 L 210.2273,15.4093 L 211.3280,15.4093 L 211.3280,15.2400 L 211.4127,15.1553 L 211.7513,15.1553 L 211.7513,14.9860 L 211.8360,14.9013 L 212.0053,14.9013 L 212.0900,14.7320 L 212.2593,14.7320 L 212.2593,14.5627 L 212.3440,14.4780 L 212.5133,14.4780 L 212.5133,14.3087 L 212.6827,14.2240 L 212.6827,13.8007 L 212.7673,13.7160 L 212.9367,13.7160 L 212.9367,13.3773 L 213.0213,13.2927 L 213.1907,13.2927 L 213.1907,12.8693 L 213.2753,12.7847 L 213.4447,12.7847 L 213.4447,12.6153 L 213.5293,12.5307 L 213.6987,12.5307 L 213.6987,12.4460 L 213.8680,12.3613 L 213.8680,12.1920 L 213.9527,12.1073 L 214.1220,12.1073 L 214.1220,11.9380 L 214.2067,11.8533 L 214.3760,11.8533 L 214.3760,11.4300 L 214.4607,11.3453 L 214.6300,11.3453 L 214.6300,11.0067 L 214.7147,10.9220 L 214.8840,10.9220 L 214.8840,9.9907 L 214.9687,9.9060 Z" fill="white" stroke="none" /></svg>